<svg width="64" height="43" viewBox="0 0 64 43" fill="none" xmlns="http://www.w3.org/2000/svg">
<path d="M30.8446 21.2821V26.3919H29.269V13.7728H33.4477C33.9465 13.7621 34.4424 13.8531 34.9068 14.0406C35.3712 14.2281 35.7949 14.5084 36.1535 14.8653C36.5157 15.2005 36.804 15.6116 36.9989 16.0709C37.1939 16.5303 37.291 17.0273 37.2838 17.5284C37.2942 18.0323 37.1985 18.5325 37.0034 18.9948C36.8083 19.4571 36.5184 19.8705 36.1535 20.2067C35.4228 20.9236 34.5209 21.2817 33.4477 21.2811H30.8446V21.2821ZM30.8446 15.3264V19.7315H33.4868C33.7765 19.7403 34.0647 19.6869 34.3332 19.5745C34.6016 19.4622 34.8443 19.2934 35.0457 19.079C35.4432 18.6814 35.6709 18.1376 35.6787 17.5673C35.6865 16.997 35.4738 16.4468 35.0874 16.0378C35.0737 16.0233 35.0598 16.0091 35.0457 15.995C34.8468 15.7761 34.605 15.6032 34.3362 15.4878C34.0675 15.3723 33.7779 15.317 33.4868 15.3254H30.8446V15.3264Z" fill="#5F6368"/>
<path d="M40.9153 17.4761C42.0798 17.4761 42.9991 17.7963 43.673 18.4366C44.3469 19.077 44.6836 19.955 44.6829 21.0706V26.3919H43.1759V25.1937H43.1074C42.455 26.1805 41.5873 26.6738 40.5043 26.6738C39.5798 26.6738 38.8064 26.3919 38.184 25.8281C37.8853 25.5693 37.6465 25.2452 37.485 24.8794C37.3235 24.5136 37.2434 24.1153 37.2504 23.7136C37.2504 22.8202 37.5786 22.1097 38.2349 21.5821C38.8912 21.0545 39.7674 20.79 40.8634 20.7887C41.799 20.7887 42.5694 20.9649 43.1749 21.3173V20.9468C43.1767 20.6729 43.1192 20.4021 43.0066 20.1539C42.8941 19.9057 42.7292 19.6865 42.5241 19.512C42.1075 19.1252 41.5645 18.9142 41.0034 18.9209C40.1233 18.9209 39.4268 19.3029 38.914 20.0668L37.5264 19.1676C38.2897 18.0399 39.4193 17.4761 40.9153 17.4761ZM38.8769 23.7489C38.8758 23.9552 38.9227 24.1588 39.0136 24.3427C39.1045 24.5266 39.2368 24.6855 39.3994 24.8061C39.7479 25.0881 40.1804 25.2375 40.6237 25.229C41.2885 25.2278 41.9258 24.9556 42.3959 24.4718C42.9178 23.9664 43.1788 23.3733 43.1788 22.6927C42.6875 22.2899 42.0025 22.0885 41.1237 22.0885C40.4837 22.0885 39.9501 22.2473 39.5227 22.5648C39.0912 22.887 38.8769 23.2787 38.8769 23.7489V23.7489Z" fill="#5F6368"/>
<path d="M53.3329 17.7581L48.072 30.1979H46.4455L48.3978 25.8452L44.9385 17.7581H46.651L49.1514 23.9604H49.1856L51.6174 17.7581H53.3329Z" fill="#5F6368"/>
<path d="M24.478 20.1808C24.4785 19.6868 24.4379 19.1937 24.3566 18.7068H17.7119V21.4988H21.5177C21.4398 21.9448 21.275 22.3699 21.0331 22.7485C20.7913 23.1271 20.4774 23.4514 20.1105 23.7019V25.5142H22.3818C23.7117 24.2526 24.478 22.3869 24.478 20.1808Z" fill="#4285F4"/>
<path d="M17.7128 27.2651C19.6142 27.2651 21.2152 26.6227 22.3827 25.5151L20.1114 23.7028C19.4792 24.1438 18.665 24.3955 17.7128 24.3955C15.875 24.3955 14.3151 23.1208 13.7573 21.4031H11.4175V23.2708C12.0039 24.4715 12.9032 25.4808 14.0148 26.1862C15.1265 26.8915 16.4068 27.265 17.7128 27.2651V27.2651Z" fill="#34A853"/>
<path d="M13.7566 21.4032C13.4617 20.5031 13.4617 19.5283 13.7566 18.6282V16.7605H11.4168C10.9234 17.7705 10.6665 18.8853 10.6665 20.0157C10.6665 21.1461 10.9234 22.2609 11.4168 23.2709L13.7566 21.4032Z" fill="#FBBC04"/>
<path d="M17.7128 15.6357C18.7176 15.6188 19.6885 16.0094 20.4157 16.7231L22.4267 14.654C21.1515 13.4216 19.4622 12.7451 17.7128 12.7661C16.4068 12.7662 15.1265 13.1397 14.0148 13.845C12.9032 14.5503 12.0039 15.5597 11.4175 16.7604L13.7573 18.6281C14.3151 16.9104 15.875 15.6357 17.7128 15.6357Z" fill="#EA4335"/>
</svg>
