<svg width="64" height="43" viewBox="0 0 64 43" fill="none" xmlns="http://www.w3.org/2000/svg">
<path d="M37.4565 11.991H26.5415V31.0026H37.4565V11.991Z" fill="#FF5F00"/>
<path d="M27.2346 21.5024C27.2331 19.6718 27.6613 17.8648 28.4868 16.2182C29.3122 14.5716 30.5133 13.1286 31.9991 11.9983C30.1588 10.5966 27.9488 9.72498 25.6216 9.48303C23.2944 9.24108 20.9439 9.63858 18.8388 10.6301C16.7337 11.6216 14.9588 13.1671 13.7171 15.09C12.4754 17.0129 11.8169 19.2356 11.8169 21.5041C11.8169 23.7726 12.4754 25.9953 13.7171 27.9182C14.9588 29.8411 16.7337 31.3866 18.8388 32.3781C20.9439 33.3696 23.2944 33.7671 25.6216 33.5252C27.9488 33.2832 30.1588 32.4116 31.9991 31.0099C30.5128 29.8793 29.3115 28.4357 28.486 26.7885C27.6605 25.1413 27.2326 23.3336 27.2346 21.5024V21.5024Z" fill="#EB001B"/>
<path d="M51.0019 28.9917V28.6021H51.1648V28.5215H50.7524V28.6021H50.9153V28.9917H51.0019ZM51.8023 28.9917V28.5215H51.6776L51.5321 28.8573L51.3865 28.5215H51.2618V28.9917H51.3484V28.6357L51.4836 28.9413H51.5771L51.7123 28.6357V28.9917H51.8023Z" fill="#F79E1B"/>
<path d="M52.1831 21.4989C52.183 23.7675 51.5244 25.9903 50.2824 27.9133C49.0405 29.8363 47.2654 31.3818 45.16 32.3732C43.0546 33.3645 40.7039 33.7618 38.3765 33.5195C36.0492 33.2772 33.8391 32.4051 31.999 31.003C33.4843 29.8717 34.685 28.4283 35.5107 26.7816C36.3363 25.1349 36.7653 23.328 36.7653 21.4972C36.7653 19.6664 36.3363 17.8595 35.5107 16.2128C34.685 14.5661 33.4843 13.1227 31.999 11.9914C33.8391 10.5893 36.0492 9.71722 38.3765 9.47492C40.7039 9.23263 43.0546 9.62987 45.16 10.6212C47.2654 11.6126 49.0405 13.1581 50.2824 15.0811C51.5244 17.0041 52.183 19.2269 52.1831 21.4955V21.4989Z" fill="#F79E1B"/>
</svg>
