<svg width="65" height="43" viewBox="0 0 65 43" fill="none" xmlns="http://www.w3.org/2000/svg">
<path d="M14.8879 16.2139C15.4137 16.0345 15.9783 15.9409 16.566 15.9409C19.1335 15.9409 21.2756 17.7819 21.7628 20.2236L25.3975 19.4747C24.5623 15.3247 20.9276 12.1965 16.566 12.1965C15.5684 12.1965 14.6095 12.3603 13.7124 12.6646L14.8879 16.2139V16.2139Z" fill="black"/>
<path d="M10.5954 28.1019L13.0546 25.2936C11.9564 24.3107 11.2682 22.8831 11.2682 21.284C11.2682 19.6926 11.9564 18.2573 13.0546 17.2822L10.5954 14.4817C8.73162 16.1511 7.55615 18.5771 7.55615 21.2918C7.55615 23.9987 8.73162 26.4324 10.5954 28.1019V28.1019Z" fill="black"/>
<path d="M21.7627 22.3608C21.2678 24.8025 19.1334 26.6357 16.5659 26.6357C15.9782 26.6357 15.4137 26.5421 14.8801 26.3626L13.7046 29.912C14.6017 30.2162 15.5683 30.3801 16.5659 30.3801C20.9275 30.3801 24.5622 27.2597 25.3974 23.1097L21.7627 22.3608V22.3608Z" fill="black"/>
<path d="M37.5075 24.8729C36.9044 25.4659 36.0924 25.8246 35.1952 25.809C34.5765 25.8012 34.0044 25.614 33.5248 25.302L32.3184 27.2366C33.1458 27.7592 34.1125 28.0712 35.1644 28.0869C36.6877 28.1103 38.0797 27.5018 39.0929 26.5111L37.5075 24.8729ZM35.3268 16.9863C32.2952 16.9395 29.7897 19.389 29.7432 22.4469C29.7277 23.5936 30.0525 24.6701 30.6325 25.5594L40.5931 21.2611C40.0364 18.8507 37.902 17.0331 35.3268 16.9863H35.3268ZM32.0246 22.8836C32.0092 22.7588 32.0014 22.6262 32.0014 22.4936C32.0324 20.6916 33.5018 19.2485 35.2881 19.2797C36.2625 19.2953 37.1285 19.7399 37.7085 20.442L32.0246 22.8836ZM43.7252 14.49V25.2005L45.5658 25.9728L44.6918 28.0868L42.8668 27.3223C42.457 27.1429 42.1785 26.8699 41.9697 26.5578C41.7686 26.2458 41.614 25.8089 41.614 25.2317V14.49H43.7252V14.49ZM50.3682 19.4435C50.6931 19.3343 51.0333 19.2797 51.3968 19.2797C52.9666 19.2797 54.2659 20.403 54.5675 21.8929L56.7869 21.4327C56.2765 18.8974 54.0571 16.994 51.3968 16.994C50.7859 16.994 50.1981 17.0955 49.6568 17.2749L50.3682 19.4435ZM47.7465 26.6904L49.2468 24.9821C48.5741 24.3814 48.1564 23.5077 48.1564 22.5326C48.1564 21.5575 48.5817 20.6838 49.2468 20.091L47.7465 18.3826C46.6098 19.3967 45.8905 20.8866 45.8905 22.5404C45.8905 24.1942 46.6098 25.6763 47.7465 26.6904ZM54.5675 23.1956C54.2659 24.6856 52.9589 25.8089 51.3968 25.8089C51.0411 25.8089 50.6931 25.7465 50.3682 25.6373L49.6491 27.8059C50.1981 27.9931 50.7858 28.0946 51.3968 28.0946C54.0571 28.0946 56.2765 26.1912 56.7869 23.6559L54.5675 23.1956Z" fill="black"/>
</svg>
