<svg width="51" height="15" viewBox="0 0 51 15" fill="none" xmlns="http://www.w3.org/2000/svg">
<g clip-path="url(#clip0_761_60)">
<path d="M45.9554 4.96764C47.1012 4.96764 47.5637 5.77953 47.5637 6.33754H44.3471C44.3471 5.7729 44.8146 4.96764 45.9554 4.96764ZM47.3048 8.84313C47.0907 9.2667 46.6004 9.55329 45.9673 9.55329C44.7715 9.55329 44.2988 8.68515 44.286 7.91191H50.226C50.2426 7.80302 50.2863 7.49385 50.2863 7.2527C50.2863 4.52186 48.4407 2.98004 45.9462 2.98004C43.3167 2.98004 41.4777 4.52186 41.4777 7.2527C41.4777 10.0037 43.3166 11.5254 45.9617 11.5254C48.5626 11.5254 49.7846 10.0672 50.1109 8.84313H47.3048Z" fill="#221C46"/>
<path d="M4.56781 9.07162C3.50109 9.07162 2.74363 8.29319 2.74363 7.25965C2.74363 6.27431 3.455 5.44773 4.56781 5.44773C5.68082 5.44773 6.39177 6.27913 6.39177 7.25965C6.39177 8.2556 5.67113 9.07162 4.56781 9.07162ZM5.36598 3.06238C4.19564 3.06238 3.19162 3.588 2.6738 4.20575L2.67208 3.22348H0V14.5056H2.75462V10.4662C3.40074 11.1744 4.30062 11.4434 5.21049 11.4434C7.93933 11.4434 9.20513 9.34368 9.20513 7.25276C9.20513 4.67237 7.57925 3.06238 5.36598 3.06238Z" fill="#221C46"/>
<path d="M12.8786 0H10.1127V11.282H12.8786V0Z" fill="#221C46"/>
<path d="M19.5518 3.22333V7.41387C19.5518 8.04906 19.4659 8.35765 19.2104 8.66555C18.9634 8.96306 18.576 9.10333 18.1464 9.10333C17.7172 9.10333 17.3291 8.96306 17.082 8.66555C16.8264 8.35765 16.741 8.04906 16.741 7.41387V3.22333H13.9855L13.9859 7.66287C13.9859 8.911 14.1733 9.72559 14.7618 10.4179C15.3843 11.1502 16.335 11.4413 17.2659 11.4413C18.3563 11.4413 19.1115 11.0242 19.6335 10.4101L19.6353 11.282H22.3073V3.22333H19.5518Z" fill="#221C46"/>
<path d="M31.291 3.22333H29.408L27.333 5.37363L25.2579 3.22333H23.375V5.14021L25.4872 7.25266L23.3751 9.3651V11.282H25.258L27.333 9.13174L29.408 11.282H31.2909V9.3651L29.1788 7.25266L31.291 5.14021V3.22333Z" fill="#221C46"/>
<path d="M36.3805 4.96764C37.5264 4.96764 37.9889 5.77953 37.9889 6.33754H34.7722C34.7722 5.7729 35.2398 4.96764 36.3805 4.96764ZM37.73 8.84313C37.5158 9.2667 37.0255 9.55329 36.3924 9.55329C35.1967 9.55329 34.7239 8.68515 34.7112 7.91191H40.6513C40.6679 7.80302 40.7115 7.49385 40.7115 7.2527C40.7115 4.52186 38.8659 2.98004 36.3714 2.98004C33.7419 2.98004 31.9029 4.52186 31.9029 7.2527C31.9029 10.0037 33.7418 11.5254 36.3869 11.5254C38.9878 11.5254 40.2098 10.0672 40.5361 8.84313H37.73Z" fill="#221C46"/>
</g>
<defs>
<clipPath id="clip0_761_60">
<rect width="50.2857" height="14.5055" fill="white"/>
</clipPath>
</defs>
</svg>
