<svg width="51" height="28" viewBox="0 0 51 28" fill="none" xmlns="http://www.w3.org/2000/svg">
<path d="M50.6464 10.9467C50.5296 7.99301 49.762 5.10583 48.4021 2.50502C48.0788 1.88592 47.5844 1.16057 46.8854 0.293208L46.6205 0H6.57837C4.00777 0 1.73378 2.14541 1.5133 4.79243L0.0223425 22.1927C-0.0397289 22.8231 0.0278901 23.4599 0.220745 24.0614C0.4136 24.6629 0.727343 25.2155 1.14139 25.6829C1.55544 26.1503 2.06045 26.5219 2.62328 26.7735C3.1861 27.025 3.79404 27.1508 4.40721 27.1425H44.7835L45.0425 26.8411C48.8519 22.4134 50.8946 16.6218 50.6464 10.9467Z" fill="white"/>
<path d="M34.1194 11.3819L34.4596 10.8466C34.2915 10.9807 34.1717 11.1692 34.1194 11.3819Z" fill="#006838"/>
<path d="M19.3125 19.0717C18.3099 19.2495 17.7563 19.6479 17.7058 20.2251C17.6959 20.3656 17.7133 20.5067 17.757 20.6401C17.8006 20.7735 17.8697 20.8965 17.9601 21.0019C18.0505 21.1073 18.1603 21.1929 18.2833 21.2537C18.4062 21.3146 18.5396 21.3494 18.6757 21.3561C19.3797 21.3428 20.051 20.5183 20.1272 20.3937C20.1544 20.3484 20.1841 20.3048 20.2161 20.2629C20.3904 20.0276 20.4889 19.7418 20.4979 19.4456L20.5661 18.6508C20.226 18.9195 19.699 19.0033 19.4341 19.0493L19.3125 19.0717Z" fill="#006838"/>
<path d="M24.8073 12.8844C26.494 12.8844 26.8173 11.6247 26.9112 10.5255C26.9425 10.2042 26.9115 9.87971 26.82 9.57098C26.7285 9.26224 26.5784 8.97546 26.3783 8.72742C26.2356 8.55131 26.0577 8.40918 25.8569 8.31078C25.656 8.21238 25.4369 8.16004 25.2146 8.15735C23.5269 8.15735 23.2056 9.4211 23.1117 10.5214C23.0814 10.8424 23.1127 11.1665 23.2038 11.4751C23.2949 11.7836 23.444 12.0706 23.6426 12.3194C23.7859 12.4947 23.9642 12.636 24.1652 12.7335C24.3662 12.831 24.5852 12.8825 24.8073 12.8844Z" fill="#006838"/>
<path d="M12.3681 8.17188C11.243 8.17188 10.7753 9.11483 10.6774 9.4724H13.4675C13.4329 8.20865 12.4788 8.17188 12.3681 8.17188Z" fill="#006838"/>
<path d="M25.6104 19.1965C25.5264 19.9025 25.6421 20.4991 25.9328 20.8771C26.04 21.0136 26.1745 21.1247 26.327 21.2028C26.4795 21.2809 26.6465 21.3242 26.8166 21.3297C27.487 21.3297 28.4252 20.2498 28.4974 19.4315L28.6863 17.2299C28.3244 17.0746 28.0644 16.9398 27.6343 16.9398C26.5289 16.9398 25.7726 17.7816 25.6104 19.1965Z" fill="#006838"/>
<path d="M44.6498 3.36314C44.5667 2.65413 44.3403 1.7786 44.0645 0.898987H6.57818C4.45644 0.898987 2.56606 2.68581 2.3792 4.87106L0.89319 22.2683C0.707316 24.4525 2.29021 26.2403 4.41195 26.2403H24.0869C24.2847 26.2403 24.4824 26.2281 24.6802 26.2189C33.0841 25.8388 41.0045 20.1116 43.7926 11.671C44.6841 9.00465 44.9773 6.16376 44.6498 3.36314ZM22.1718 10.6483C22.2964 9.16698 23.4829 7.63659 25.2536 7.63659C26.0653 7.63659 26.7792 7.94307 27.2626 8.51416C27.4783 8.77003 27.642 9.06813 27.7439 9.39073C27.8459 9.71332 27.8839 10.0538 27.8558 10.3919C27.7273 11.8743 26.5409 13.4067 24.7721 13.4067C23.9574 13.4067 23.2426 13.0951 22.7601 12.5281C22.5447 12.2718 22.3816 11.9732 22.2806 11.6502C22.1795 11.3272 22.1425 10.9864 22.1718 10.6483ZM14.4719 13.1717C14.5945 12.8928 14.6093 12.7406 14.6607 12.1215L14.9119 9.15063C14.9643 8.55605 14.9119 8.12901 14.7478 7.84704L14.6904 7.74488H15.6366C15.8007 8.0105 15.7839 8.52642 15.7463 8.95039C16.4167 8.07282 17.2195 7.62228 18.1311 7.62228C18.245 7.62249 18.3589 7.62897 18.4722 7.6417L18.5651 7.65498L18.0539 8.55298L18.0015 8.51723C17.852 8.40581 17.6727 8.34513 17.4884 8.34355C16.8507 8.34355 16.2347 9.02293 15.9975 9.3805C15.8024 9.64501 15.6758 9.95654 15.6297 10.2857L15.4725 12.1246C15.4369 12.5332 15.4072 12.8939 15.4833 13.1779L15.5071 13.2616H14.4314L14.4719 13.1717ZM7.62817 10.0354C7.30914 10.0361 6.99363 9.96645 6.70275 9.83103L6.63058 9.7963L6.92719 9.42238C7.13406 9.45966 7.34316 9.48218 7.55303 9.48981C8.50415 9.48981 9.06573 8.70623 9.13494 7.9349C9.21107 7.0277 8.80768 6.40247 8.02563 6.23696C7.74187 6.17056 7.39978 6.15523 6.87083 6.15319L6.35473 12.2482C6.32309 12.615 6.29541 12.9296 6.36363 13.182L6.38638 13.2657H5.24344L5.28299 13.1717C5.40856 12.8928 5.43623 12.5363 5.47281 12.1246L5.93256 6.73041C5.96617 6.31665 5.99484 5.95908 5.91772 5.69244L5.894 5.60765H7.39187C8.23621 5.60765 8.80769 5.69142 9.09243 5.85488C9.78452 6.27578 10.0613 6.8765 9.98225 7.81946C9.85669 9.33759 8.67421 10.0354 7.62817 10.0354ZM10.1325 12.5353C9.7049 12.0123 9.49454 11.3359 9.54723 10.6534C9.66884 9.2058 10.8879 7.65395 12.5074 7.65395C12.9562 7.65395 14.4106 7.82354 14.3859 9.97202V10.0354H10.5468C10.3767 10.8751 10.5072 11.6403 10.9136 12.19C11.0751 12.4116 11.2841 12.5916 11.5243 12.7157C11.7645 12.8398 12.0292 12.9046 12.2978 12.9051C12.7401 12.8955 13.1679 12.7402 13.5188 12.4617L13.5672 12.426L13.6009 12.476C13.6009 12.476 13.6997 12.6272 13.7719 12.71L13.8174 12.761L13.761 12.806C13.2182 13.2146 12.6843 13.419 12.1722 13.419H12.1198C11.2854 13.4067 10.6012 13.1002 10.1325 12.5322V12.5353ZM16.7034 16.3899C16.2407 15.5429 15.4626 15.0158 14.6756 15.0158C12.7644 15.0158 11.7856 16.4573 11.665 17.8875C11.5503 19.2402 11.9913 20.0728 12.3858 20.5315C12.8455 21.0679 13.5109 21.403 14.1229 21.403C15.0622 21.403 15.771 21.0965 16.3484 20.4457L16.4226 20.3578L16.5689 21.0209C15.8146 21.689 14.9376 22.0231 14.0754 22.0231C13.0116 22.0231 12.0367 21.596 11.406 20.8564C10.8335 20.1882 10.5735 19.3239 10.6555 18.3606C10.8187 16.444 12.4935 14.3946 14.726 14.3946C15.4705 14.3853 16.2009 14.6043 16.825 15.0239L16.8181 16.352V16.5788L16.7034 16.3899ZM20.4911 21.9536C20.3329 21.7207 20.3507 21.1782 20.3734 20.8891C19.7446 21.596 18.9892 22.0425 18.4217 22.0425C18.3802 22.0425 18.3407 22.0425 18.3031 22.0425C17.1918 21.9199 16.7518 21.0863 16.8112 20.3629C16.8902 19.2902 17.8087 18.6211 19.3373 18.5291C20.0659 18.4872 20.4663 18.1767 20.5385 17.8896C20.6008 17.6444 20.4397 17.3788 20.1055 17.1745C19.8535 17.028 19.5679 16.955 19.2789 16.963C18.8835 16.963 18.2448 17.0794 17.4785 17.624L17.3648 17.7037L17.3876 17.5637C17.4172 17.3696 17.4864 16.9977 17.4864 16.9977C18.135 16.6166 18.6165 16.4358 19.3887 16.4358C20.494 16.4358 21.2168 16.8864 21.375 17.6413C21.4452 17.9478 21.4145 18.3023 21.3868 18.619L21.2187 20.5938C21.1683 21.1772 21.2187 21.6052 21.369 21.8637L21.4264 21.9587L20.4911 21.9536ZM19.6586 13.4414H19.5597C18.9625 13.4266 18.3824 13.2328 17.8898 12.8836L17.876 12.0898V11.8906L17.9818 12.0531C18.1799 12.3142 18.433 12.5254 18.7218 12.6705C19.0106 12.8156 19.3275 12.891 19.6487 12.8908C20.2736 12.8908 20.9686 12.6027 21.0902 12.048C21.1555 11.7108 21.0032 11.2061 19.889 10.7321L19.7762 10.68C19.0733 10.347 18.1113 9.8862 18.4079 8.69908C18.5602 8.10143 19.2552 7.6703 20.1312 7.6325L20.2301 7.62739C20.7961 7.63708 21.3483 7.81051 21.8238 8.12799L21.8535 8.94528V9.15983L21.7437 8.98104C21.3206 8.29553 20.6137 8.19337 20.2301 8.19337H20.1005C19.5914 8.22402 19.2898 8.39769 19.2107 8.73483C19.0683 9.32533 19.5538 9.56643 20.0689 9.81673L20.2795 9.91889C20.8401 10.1804 22.1491 10.7914 21.9355 11.8518C21.7615 12.7508 20.7867 13.4384 19.6586 13.4384V13.4414ZM24.6693 17.1193C24.0365 17.1193 23.4265 17.7833 23.1951 18.1409C23.0008 18.4011 22.8736 18.7079 22.8254 19.0328L22.6751 20.8339C22.6375 21.2426 22.6089 21.594 22.684 21.8729L22.7087 21.9536H21.6429L21.6824 21.8637C21.805 21.5868 21.8179 21.4377 21.8693 20.8268L22.1185 17.907C22.1699 17.3216 22.1185 16.9007 21.9553 16.6248L21.9009 16.5288H22.8362C22.9984 16.7862 22.9816 17.2981 22.944 17.7169C23.6094 16.8516 24.4023 16.4123 25.306 16.4123C25.419 16.4122 25.5318 16.4184 25.6441 16.4307L25.7351 16.4409L25.2289 17.3267L25.1775 17.2889C25.0288 17.1803 24.8514 17.1204 24.6693 17.1193ZM29.8926 13.9717C29.7571 14.2465 29.7265 14.5979 29.6948 15.0076L29.3676 18.8581L29.2202 20.5857C29.1718 21.1527 29.2272 21.5787 29.3854 21.8555L29.4407 21.9505H28.5054C28.3364 21.6604 28.3581 21.1332 28.3858 20.7747C28.1668 21.0876 27.9081 21.3687 27.6166 21.6103C27.2775 21.8818 26.8591 22.026 26.4302 22.019H26.3649C26.1495 22.0224 25.936 21.9769 25.7395 21.8856C25.5431 21.7943 25.3684 21.6595 25.2279 21.4908C24.8324 21.027 24.6396 20.272 24.7088 19.4731C24.7662 18.805 25.1369 16.6126 27.5147 16.4399C27.5662 16.4399 27.6136 16.4399 27.6621 16.4399C28.0296 16.4477 28.3935 16.5167 28.7397 16.6442L28.891 14.8799C28.9236 14.5223 28.9503 14.2179 28.8821 13.9686L28.8604 13.8869H29.9479L29.8926 13.9717ZM32.9496 9.13327L32.6846 12.237C32.655 12.6078 32.6263 12.9255 32.7064 13.1789L32.7331 13.2667H31.6416L31.686 13.1728C31.8076 12.9184 31.8215 12.7723 31.862 12.2921L32.1102 9.34576C32.1361 9.05965 32.0536 8.77431 31.8798 8.54992C31.7127 8.35172 31.4745 8.25671 31.168 8.25671C30.2267 8.25671 29.1965 9.54702 29.1322 10.2938L28.976 12.1327C28.9414 12.5414 28.9098 12.902 28.9889 13.186L29.0116 13.2698H27.9359L27.9765 13.1758C28.0981 12.8969 28.1119 12.7447 28.1653 12.1256L28.4164 9.15472C28.4669 8.56013 28.4164 8.1331 28.2513 7.85113L28.195 7.74896H29.1392C29.3043 8.0105 29.2875 8.5254 29.2499 8.94733C29.8115 8.19235 30.6637 7.66621 31.341 7.66621C31.9915 7.66621 32.4374 7.81333 32.6985 8.12084C32.9002 8.36603 32.9872 8.70623 32.9496 9.13327ZM36.9044 13.2667C36.7462 13.0267 36.763 12.477 36.7857 12.1849C36.152 12.9 35.3927 13.3567 34.8143 13.3567C34.7749 13.3567 34.7356 13.3536 34.6966 13.3475C34.0293 13.2749 33.6091 12.946 33.3816 12.5383C33.2323 12.267 33.1655 11.9555 33.1898 11.6444C33.2551 10.7188 33.9373 10.0905 35.0842 9.86168C35.3003 9.81853 35.519 9.7902 35.7387 9.77689C36.4782 9.73806 36.8806 9.42341 36.9528 9.1302C37.0131 8.87786 36.854 8.61939 36.5168 8.39974C36.3942 8.32413 36.2607 8.26929 36.1213 8.2373C35.9783 8.2035 35.832 8.18671 35.6853 8.18724C35.2819 8.18724 34.6422 8.30575 33.8671 8.85947L33.7534 8.94018L33.7752 8.79817C33.8048 8.60202 33.874 8.22402 33.874 8.22402C34.5325 7.83478 35.016 7.64987 35.7941 7.64987C36.0144 7.65001 36.2342 7.67191 36.4506 7.71525C37.1911 7.86339 37.6736 8.27101 37.8011 8.87377C37.8723 9.18741 37.8397 9.55315 37.812 9.87496L37.6429 11.8743C37.5945 12.4699 37.6429 12.9031 37.7952 13.1636L37.8525 13.2657L36.9044 13.2667ZM40.0356 5.15098C39.911 5.43703 39.8981 5.5821 39.8477 6.20734L39.3455 12.1327C39.2911 12.7549 39.2782 12.902 39.3534 13.186L39.3781 13.2698H38.3053L38.3449 13.1758C38.4675 12.8969 38.4981 12.5404 38.5357 12.1287L39.036 6.20325C39.0874 5.57597 39.1022 5.42988 39.0261 5.14894L39.0024 5.06618H40.0781L40.0356 5.15098Z" fill="#006838"/>
<path d="M35.7164 10.3418C35.1528 10.444 34.7336 10.6146 34.4597 10.8475L34.1196 11.3829C34.1073 11.426 34.0984 11.4701 34.0929 11.5147C34.0813 11.6569 34.0978 11.8001 34.1414 11.9355C34.1851 12.071 34.2551 12.1958 34.347 12.3023C34.4373 12.4115 34.5484 12.5 34.6735 12.5625C34.7986 12.6249 34.9349 12.6598 35.0737 12.665C35.7865 12.6497 36.4579 11.8109 36.5389 11.6853C36.5686 11.6403 36.5973 11.5943 36.6279 11.5504C36.805 11.3121 36.905 11.0222 36.9137 10.7219L36.9839 9.91071C36.6368 10.1876 36.1069 10.2764 35.836 10.3194L35.7164 10.3418Z" fill="#006838"/>
<path d="M21.2198 20.5854L21.3879 18.6106C21.4156 18.2939 21.4462 17.9384 21.376 17.6329C21.2178 16.878 20.4951 16.4274 19.3897 16.4274C18.6175 16.4274 18.1361 16.6083 17.4875 16.9893C17.4875 16.9893 17.4163 17.3612 17.3886 17.5553L17.3659 17.6953L17.4796 17.6156C18.2458 17.0711 18.8815 16.9546 19.28 16.9546C19.5689 16.9466 19.8546 17.0197 20.1065 17.1661C20.4427 17.3704 20.6009 17.636 20.5396 17.8812C20.4674 18.1683 20.067 18.4788 19.3383 18.5207C17.8098 18.6127 16.8913 19.2818 16.8122 20.3545C16.7529 21.0779 17.1928 21.9115 18.3041 22.0341C18.3417 22.0341 18.3813 22.0341 18.4228 22.0341C18.9952 22.0341 19.7457 21.5876 20.3745 20.8807C20.3517 21.1698 20.3339 21.7123 20.4921 21.9452H21.4294L21.3721 21.8502C21.2208 21.5968 21.1694 21.1708 21.2198 20.5854ZM20.4971 19.4463C20.4881 19.7425 20.3895 20.0283 20.2153 20.2636C20.1833 20.3055 20.1536 20.3491 20.1263 20.3944C20.0502 20.519 19.3788 21.3435 18.6749 21.3568C18.5388 21.35 18.4053 21.3152 18.2824 21.2544C18.1595 21.1936 18.0496 21.1079 17.9592 21.0025C17.8688 20.8972 17.7998 20.7741 17.7561 20.6407C17.7125 20.5073 17.6951 20.3663 17.705 20.2258C17.7554 19.6486 18.3091 19.2502 19.3116 19.0724L19.4332 19.051C19.6982 19.005 20.2242 18.9212 20.5653 18.6525L20.4971 19.4463Z" fill="white"/>
<path d="M16.8193 15.0208C16.1953 14.6012 15.4648 14.3822 14.7203 14.3915C12.4879 14.3915 10.813 16.4408 10.6499 18.3574C10.5678 19.3238 10.8279 20.1851 11.4003 20.8532C12.036 21.5929 13.0109 22.0199 14.0698 22.0199C14.9319 22.0199 15.8089 21.6858 16.5633 21.0177L16.4169 20.3547L16.3428 20.4425C15.7654 21.0943 15.0575 21.3998 14.1172 21.3998C13.5052 21.3998 12.8398 21.0647 12.3801 20.5283C11.9846 20.0696 11.5447 19.237 11.6594 17.8844C11.78 16.4541 12.7588 15.0126 14.6699 15.0126C15.4609 15.0126 16.235 15.5398 16.6977 16.3867L16.8035 16.5798V16.353L16.8193 15.0208Z" fill="white"/>
<path d="M25.306 16.4093C24.4023 16.4093 23.6094 16.8486 22.944 17.7139C22.9816 17.2951 22.9984 16.7832 22.8362 16.5258H21.9009L21.9553 16.6218C22.1155 16.8977 22.1699 17.3186 22.1185 17.904L21.8693 20.8238C21.8179 21.4367 21.805 21.5838 21.6824 21.8607L21.6429 21.9506H22.7087L22.684 21.8699C22.6088 21.591 22.6375 21.2385 22.6751 20.8309L22.8254 19.0298C22.8736 18.7049 23.0008 18.3981 23.1951 18.1379C23.4265 17.7844 24.0365 17.1163 24.6693 17.1163C24.8511 17.1165 25.0284 17.1743 25.1775 17.2818L25.2289 17.3196L25.7351 16.4338L25.6441 16.4236C25.5317 16.4126 25.4189 16.4078 25.306 16.4093Z" fill="white"/>
<path d="M28.8549 13.8818L28.8767 13.9635C28.9449 14.2128 28.9182 14.5172 28.8856 14.8748L28.7343 16.6391C28.3881 16.5115 28.0242 16.4426 27.6567 16.4348C27.6082 16.4348 27.5578 16.4348 27.5093 16.4348C25.1365 16.6044 24.7608 18.7998 24.7034 19.468C24.6342 20.2669 24.831 21.0219 25.2225 21.4857C25.363 21.6544 25.5377 21.7892 25.7341 21.8805C25.9306 21.9717 26.1441 22.0173 26.3595 22.0139H26.4247C26.8537 22.0208 27.2721 21.8767 27.6112 21.6052C27.9027 21.3636 28.1614 21.0825 28.3804 20.7695C28.3527 21.1281 28.3309 21.6553 28.5 21.9454H29.4353L29.38 21.8504C29.2218 21.5735 29.1664 21.1475 29.2148 20.5805L29.3621 18.853L29.6894 15.0035C29.724 14.5948 29.7547 14.2424 29.8872 13.9676L29.9326 13.8766L28.8549 13.8818ZM26.8182 21.3294C26.6481 21.3239 26.4811 21.2806 26.3286 21.2025C26.1761 21.1244 26.0416 21.0133 25.9344 20.8768C25.6437 20.4988 25.528 19.9022 25.612 19.1962C25.7752 17.7813 26.5315 16.9395 27.6369 16.9395C28.067 16.9395 28.329 17.0743 28.6889 17.2296L28.497 19.4343C28.4268 20.2516 27.4886 21.3294 26.8182 21.3294Z" fill="white"/>
<path d="M15.4827 13.1839C15.4066 12.8999 15.4363 12.5413 15.4719 12.1306L15.6291 10.2917C15.6752 9.96261 15.8018 9.65108 15.9969 9.38657C16.2342 9.029 16.8501 8.34962 17.4878 8.34962C17.6721 8.3512 17.8515 8.41189 18.001 8.5233L18.0533 8.55905L18.5645 7.66105L18.4716 7.64777C18.3583 7.63504 18.2444 7.62856 18.1305 7.62836C17.2189 7.62836 16.4161 8.07481 15.7457 8.95647C15.7833 8.53249 15.8001 8.01657 15.636 7.75095H14.6898L14.7472 7.85312C14.9083 8.13406 14.9637 8.56212 14.9113 9.1567L14.6602 12.1276C14.6087 12.7467 14.5939 12.8989 14.4713 13.1778L14.4308 13.2718H15.5065L15.4827 13.1839Z" fill="white"/>
<path d="M19.7764 10.6737L19.8891 10.7258C21.0033 11.1998 21.1556 11.7045 21.0903 12.0416C20.9687 12.5964 20.2737 12.8845 19.6488 12.8845C19.3277 12.8846 19.0107 12.8093 18.7219 12.6642C18.4331 12.519 18.18 12.3079 17.9819 12.0467L17.8761 11.8843V12.0835L17.8899 12.8773C18.3825 13.2265 18.9627 13.4203 19.5598 13.4351H19.6587C20.7868 13.4351 21.7617 12.7476 21.9268 11.8393C22.1403 10.7789 20.8313 10.168 20.2707 9.90643L20.0601 9.80427C19.545 9.55397 19.0596 9.31287 19.2019 8.72237C19.286 8.38932 19.5875 8.21156 20.0918 8.18091H20.2213C20.6049 8.18091 21.3088 8.28307 21.735 8.96858L21.8447 9.14736V8.93282L21.815 8.11552C21.3395 7.79804 20.7874 7.62462 20.2213 7.61493L20.1224 7.62004C19.2464 7.65784 18.5514 8.08896 18.3991 8.68661C18.1074 9.87987 19.0694 10.3416 19.7764 10.6737Z" fill="white"/>
<path d="M10.1318 12.5324C10.6005 13.0953 11.2847 13.4018 12.1181 13.4222H12.1705C12.6827 13.4222 13.2166 13.2179 13.7594 12.8092L13.8157 12.7643L13.7702 12.7132C13.7 12.6305 13.5992 12.4793 13.5992 12.4793L13.5656 12.4292L13.5171 12.4649C13.1662 12.7434 12.7384 12.8987 12.2961 12.9083C12.0276 12.9079 11.7628 12.843 11.5226 12.7189C11.2825 12.5949 11.0734 12.4149 10.9119 12.1932C10.5056 11.6436 10.3751 10.8784 10.5451 10.0386H14.3842V9.97321C14.4069 7.82781 12.9526 7.65515 12.5057 7.65515C10.8862 7.65515 9.66717 9.20699 9.54556 10.6546C9.4942 11.3359 9.70486 12.0106 10.1318 12.5324ZM12.3683 8.17209C12.479 8.17209 13.4331 8.20887 13.4677 9.47262H10.6806C10.7794 9.11607 11.2431 8.17209 12.3683 8.17209Z" fill="white"/>
<path d="M24.7721 13.4064C26.5409 13.4064 27.7273 11.874 27.8538 10.3937C27.8819 10.0556 27.8438 9.7151 27.7419 9.39251C27.64 9.06992 27.4763 8.77181 27.2606 8.51594C26.7771 7.94792 26.0633 7.63837 25.2516 7.63837C23.4809 7.63837 22.2944 9.1708 22.1699 10.6501C22.1414 10.9882 22.1793 11.3288 22.2813 11.6515C22.3832 11.9741 22.5471 12.2722 22.7631 12.5279C23.2426 13.1 23.9574 13.4064 24.7721 13.4064ZM23.1121 10.5214C23.2109 9.4211 23.5273 8.15735 25.215 8.15735C25.4373 8.16004 25.6564 8.21239 25.8572 8.31078C26.0581 8.40918 26.236 8.55131 26.3787 8.72742C26.5788 8.97546 26.7289 9.26224 26.8204 9.57098C26.9119 9.87972 26.9429 10.2042 26.9116 10.5255C26.8127 11.6247 26.4944 12.8844 24.8077 12.8844C24.5856 12.8825 24.3666 12.831 24.1656 12.7335C23.9645 12.636 23.7863 12.4947 23.643 12.3194C23.4444 12.0706 23.2953 11.7836 23.2042 11.4751C23.113 11.1665 23.0818 10.8424 23.1121 10.5214Z" fill="white"/>
<path d="M28.9844 13.1839C28.9053 12.8999 28.9369 12.5413 28.9715 12.1306L29.1277 10.2917C29.192 9.54487 30.2222 8.25456 31.1634 8.25456C31.4699 8.25456 31.7082 8.34957 31.8753 8.54777C32.049 8.77216 32.1316 9.0575 32.1057 9.34361L31.8575 12.29C31.817 12.7701 31.8031 12.9162 31.6815 13.1706L31.637 13.2646H32.7285L32.7018 13.1767C32.6218 12.9234 32.6504 12.6057 32.6801 12.2348L32.9451 9.13111C32.9826 8.70305 32.8956 8.36285 32.69 8.11868C32.429 7.8122 31.9831 7.66406 31.3325 7.66406C30.6552 7.66406 29.803 8.1902 29.2414 8.94518C29.279 8.52325 29.2958 8.00835 29.1307 7.74681H28.1865L28.2428 7.84898C28.403 8.12992 28.4584 8.55798 28.4079 9.15256L28.1568 12.1234C28.1034 12.7425 28.0896 12.8948 27.968 13.1737L27.9274 13.2677H29.0031L28.9844 13.1839Z" fill="white"/>
<path d="M5.91983 5.69425C5.99695 5.96089 5.96828 6.31846 5.93466 6.73222L5.47492 12.1264C5.43833 12.535 5.41066 12.8946 5.28509 13.1735L5.24554 13.2675H6.38649L6.36375 13.1838C6.29553 12.9314 6.32322 12.6168 6.35486 12.25L6.87095 6.155C7.3999 6.155 7.74199 6.17237 8.02575 6.23877C8.80781 6.40734 9.21218 7.02951 9.13506 7.93671C9.06882 8.70803 8.50724 9.49162 7.55315 9.49162C7.34329 9.48399 7.13418 9.46146 6.92731 9.42419L6.6307 9.7981L6.70288 9.83284C6.99375 9.96825 7.30926 10.0379 7.62829 10.0372C8.67433 10.0372 9.8568 9.34246 9.98533 7.82229C10.0644 6.88341 9.7876 6.27861 9.09551 5.8577C8.81077 5.69424 8.23931 5.61047 7.39496 5.61047H5.89709L5.91983 5.69425Z" fill="white"/>
<path d="M37.7945 13.1675C37.6422 12.9069 37.5967 12.4738 37.6422 11.8782L37.8123 9.87579C37.8399 9.55398 37.8726 9.18824 37.8014 8.8746C37.6738 8.27184 37.1914 7.86421 36.4508 7.71608C36.2345 7.67274 36.0147 7.65084 35.7943 7.6507C35.0162 7.6507 34.5328 7.83561 33.8743 8.22485C33.8743 8.22485 33.8041 8.60285 33.7754 8.799L33.7537 8.94101L33.8674 8.8603C34.6425 8.30658 35.2822 8.18807 35.6856 8.18807C35.8323 8.18753 35.9786 8.20433 36.1216 8.23813C36.261 8.27012 36.3945 8.32496 36.5171 8.40057C36.8552 8.61511 37.0114 8.87868 36.9531 9.13103C36.8809 9.42423 36.4785 9.744 35.739 9.77771C35.5192 9.79103 35.3006 9.81936 35.0845 9.86251C33.9376 10.0914 33.2554 10.7197 33.1901 11.6452C33.1658 11.9564 33.2326 12.2678 33.3819 12.5392C33.6064 12.9478 34.0295 13.2757 34.6969 13.3483C34.7358 13.3544 34.7752 13.3575 34.8145 13.3575C35.3929 13.3575 36.1523 12.8998 36.786 12.1857C36.7633 12.4779 36.7465 13.0275 36.9046 13.2676H37.8508L37.7945 13.1675ZM36.9135 10.7156C36.9049 11.0159 36.8049 11.3058 36.6278 11.5441C36.5972 11.588 36.5685 11.634 36.5388 11.679C36.4617 11.8046 35.7864 12.6434 35.0736 12.6587C34.9348 12.6535 34.7985 12.6186 34.6734 12.5562C34.5483 12.4937 34.4371 12.4051 34.3469 12.296C34.255 12.1895 34.185 12.0647 34.1413 11.9292C34.0976 11.7938 34.0811 11.6506 34.0928 11.5083C34.0983 11.4637 34.1072 11.4197 34.1195 11.3766C34.1718 11.1638 34.2915 10.9754 34.4596 10.8412C34.7335 10.6083 35.1517 10.4326 35.7162 10.3355L35.8359 10.311C36.1068 10.2701 36.6367 10.1813 36.9837 9.90235L36.9135 10.7156Z" fill="white"/>
<path d="M47.1752 2.92804L48.1184 7.90641C48.0347 6.29142 47.7455 4.69486 47.2583 3.1579C47.2355 3.08843 47.2029 3.00364 47.1752 2.92804Z" fill="white"/>
<path d="M49.7773 10.9866C49.6638 8.16874 48.9315 5.41442 47.6358 2.93217C47.4374 2.56286 47.2164 2.20696 46.9743 1.86662C46.743 1.53459 46.4869 1.19541 46.2199 0.858276C46.5883 1.52236 46.9076 2.21427 47.175 2.92808C47.2027 3.00368 47.2353 3.08439 47.2581 3.15795C47.7453 4.69491 48.0345 6.29146 48.1182 7.90645C48.1833 9.09996 48.1393 10.2972 47.9867 11.4821C47.2185 17.4198 43.944 22.6178 39.4049 26.0188C39.306 26.0934 39.2071 26.172 39.1083 26.2446H44.3948C47.9353 22.1254 50.0304 16.6761 49.7773 10.9866Z" fill="#50B848"/>
</svg>
