<svg width="49" height="30" viewBox="0 0 49 30" fill="none" xmlns="http://www.w3.org/2000/svg">
<path fill-rule="evenodd" clip-rule="evenodd" d="M0 25.0812C12.2081 25.0812 24.4162 25.0812 36.6243 25.0812C38.1493 25.0812 39.4855 23.8115 39.6209 22.2714C40.274 14.8488 40.9152 7.42504 41.5446 0C29.5954 0 17.6465 0 5.69786 0C3.73642 0 1.99843 1.63497 1.82752 3.62089C1.21933 10.7748 0.610159 17.9283 0 25.0812Z" fill="white"/>
<path fill-rule="evenodd" clip-rule="evenodd" d="M2.31476 19.6733H42.2652C43.778 19.6733 45.1241 18.4124 45.2552 16.8727C45.6898 11.7504 46.1276 6.62938 46.5684 1.50946H6.8826C5.21934 1.50946 3.74549 2.89344 3.60005 4.58468C3.16711 9.61337 2.73868 14.6429 2.31476 19.6733Z" fill="#004282"/>
<path fill-rule="evenodd" clip-rule="evenodd" d="M1.61609 27.813H42.194C43.3499 27.813 44.379 26.8464 44.477 25.6656L44.9066 20.6564H4.32872C3.17196 20.6564 2.14373 21.6229 2.04565 22.8038L1.61609 27.813Z" fill="#FDB913"/>
<path fill-rule="evenodd" clip-rule="evenodd" d="M38.0461 23.9202L38.2439 22.7902C37.6732 22.7902 37.2436 22.8995 36.9079 23.409L36.9823 22.9115H35.8349L35.3326 26.4885H36.639C36.7258 25.7466 36.7909 25.2531 36.8343 25.0081C36.9451 24.3945 37.1658 23.9134 37.8617 23.9134C37.9234 23.9134 37.9843 23.9134 38.0461 23.9202Z" fill="#004282"/>
<path fill-rule="evenodd" clip-rule="evenodd" d="M40.2525 26.2612C39.7265 26.7268 38.7262 26.7191 38.2738 26.1554C38.0438 25.8685 37.9525 25.4737 37.9999 24.9711C38.0619 24.3284 38.304 23.8103 38.7262 23.4167C39.2835 22.9003 40.0157 22.7531 40.7362 22.8667L40.8681 21.8339H42.1483L41.5073 26.4884H40.2254L40.2533 26.2612H40.2525ZM40.6229 23.7842C40.4526 23.7197 40.2675 23.7078 40.0906 23.7499C39.9137 23.792 39.753 23.8862 39.6285 24.0209C39.4398 24.2458 39.3293 24.5277 39.3139 24.823C39.2818 25.1621 39.3629 25.6097 39.7832 25.6097C40.2643 25.6097 40.4343 25.1234 40.491 24.7163L40.6229 23.7842Z" fill="#004282"/>
<path fill-rule="evenodd" clip-rule="evenodd" d="M29.9442 26.8251C29.0944 26.8251 28.4433 26.5987 28.0087 26.1537C27.618 25.7535 27.4168 25.1579 27.4405 24.4763C27.4718 23.6104 27.8548 22.7316 28.4163 22.2385C28.9515 21.766 29.699 21.5155 30.5784 21.5155C31.008 21.5172 31.4359 21.5697 31.8536 21.6721L32.0278 21.7135L31.955 23.2627L31.6845 23.1585C31.383 23.0439 31.0643 22.9836 30.7425 22.9804C30.4541 22.9804 30.0466 23.0389 29.743 23.3178C29.4893 23.5476 29.3067 23.9951 29.2974 24.4057C29.2974 24.5967 29.3261 24.8627 29.5071 25.0426C29.688 25.2225 29.9696 25.3008 30.3662 25.3008C30.716 25.2934 31.0636 25.2422 31.4012 25.1484L31.7496 25.0564L31.3767 26.6374L31.2456 26.6676C30.8187 26.768 30.3824 26.8208 29.9442 26.8251Z" fill="#004282"/>
<path fill-rule="evenodd" clip-rule="evenodd" d="M29.9452 26.7268C29.1216 26.7268 28.4933 26.5108 28.0781 26.0847C27.7052 25.7043 27.5133 25.1337 27.5378 24.4796C27.5682 23.6395 27.9378 22.7883 28.4798 22.3098C28.9981 21.8528 29.7236 21.6109 30.5794 21.6109C31.0027 21.6132 31.4244 21.6655 31.8359 21.7667L31.9323 21.7899L31.8697 23.1248L31.7167 23.0672C31.4053 22.9484 31.0759 22.8858 30.7434 22.8821C30.4381 22.8821 30.0061 22.9458 29.6797 23.2445C29.4082 23.4915 29.2121 23.9675 29.2028 24.403C29.1977 24.6138 29.2357 24.9082 29.4412 25.1122C29.6332 25.3024 29.9486 25.3988 30.3713 25.3988C30.7294 25.3912 31.0852 25.3392 31.4309 25.2438L31.6237 25.1931L31.3023 26.5564L31.2296 26.5727C30.8082 26.6714 30.3775 26.7231 29.9452 26.7268Z" fill="#FDB913"/>
<path fill-rule="evenodd" clip-rule="evenodd" d="M31.7579 22.9528L31.8078 21.8855C30.7381 21.6273 29.4274 21.6342 28.5582 22.4019C27.6695 23.186 27.2585 25.0701 28.1624 25.9987C28.8964 26.751 30.2417 26.6735 31.1989 26.454L31.4526 25.3618C30.8472 25.5228 29.8384 25.6794 29.3539 25.1992C28.8406 24.6896 29.118 23.588 29.5957 23.1542C30.1631 22.636 31.0839 22.698 31.7579 22.9528Z" fill="#004282"/>
<path fill-rule="evenodd" clip-rule="evenodd" d="M33.6997 26.4102C33.1704 26.5471 32.4559 26.7545 32.0086 26.3078C31.8327 26.1296 31.7591 25.8886 31.7887 25.5814C31.8614 24.8223 32.4474 24.5305 33.1121 24.3764C33.3454 24.3127 34.0422 24.2301 34.0684 23.9392C34.0738 23.9063 34.0698 23.8726 34.0567 23.842C34.0437 23.8115 34.0222 23.7854 33.9948 23.7671C33.6372 23.5484 32.7671 23.8531 32.4229 24.002L32.6664 22.983C33.3015 22.7953 34.4641 22.6206 35.051 23.0269C35.2683 23.1766 35.3715 23.409 35.3309 23.7214L34.969 26.4851H33.6862C33.6904 26.4584 33.6947 26.4326 33.6997 26.4068V26.4102ZM33.8207 25.6588C33.5915 25.7449 33.1501 25.9282 32.948 25.7303C32.8262 25.6106 32.8863 25.4127 32.9971 25.3111C33.0764 25.2422 33.1715 25.1949 33.2736 25.1734C33.4911 25.1242 33.7059 25.0633 33.9171 24.9909C33.8866 25.2136 33.8545 25.4362 33.8207 25.6588Z" fill="#004282"/>
<path fill-rule="evenodd" clip-rule="evenodd" d="M23.982 9.02935C23.2683 8.19104 22.1843 7.76672 20.7611 7.76672C19.2924 7.76672 18.073 8.23063 17.137 9.14382C16.2009 10.057 15.6648 11.3153 15.5253 12.8869C15.39 14.4069 15.6842 15.6024 16.3996 16.439C17.115 17.2756 18.2117 17.6999 19.65 17.6999C21.1154 17.6999 22.328 17.2351 23.2531 16.3176C24.1781 15.4001 24.71 14.1358 24.8504 12.5513C24.984 11.0511 24.6914 9.86507 23.982 9.02935ZM24.732 12.5427C24.5942 14.0971 24.0682 15.3382 23.1702 16.2324C22.2722 17.1267 21.0833 17.5811 19.65 17.5811C18.2481 17.5811 17.1843 17.1706 16.4892 16.3606C15.7942 15.5507 15.5117 14.3854 15.6437 12.8998C15.7806 11.3575 16.3108 10.1233 17.2198 9.23247C18.1288 8.34166 19.3245 7.88808 20.7611 7.88808C22.1487 7.88808 23.2015 8.29863 23.8898 9.10853C24.5781 9.91843 24.8622 11.0743 24.732 12.5427Z" fill="white"/>
<path fill-rule="evenodd" clip-rule="evenodd" d="M20.5079 10.5543C20.3023 10.5571 20.1002 10.6085 19.9175 10.7044C19.7348 10.8003 19.5765 10.9381 19.4551 11.1069C18.9478 11.8643 18.6983 13.6029 19.1245 14.4179C19.1984 14.5588 19.3098 14.6758 19.4458 14.7556C19.5818 14.8353 19.7371 14.8746 19.894 14.8689C20.0932 14.8663 20.2892 14.8174 20.467 14.7258C20.6448 14.6342 20.7996 14.5024 20.9197 14.3405C21.4143 13.6313 21.6756 11.8557 21.2663 11.0105C21.1967 10.868 21.088 10.7491 20.9534 10.6681C20.8188 10.5872 20.6641 10.5476 20.5079 10.5543ZM20.8233 14.2707C20.7142 14.4171 20.5737 14.5362 20.4125 14.6189C20.2513 14.7015 20.0736 14.7455 19.8931 14.7476C19.7579 14.753 19.6239 14.7197 19.5064 14.6513C19.3888 14.583 19.2926 14.4824 19.2285 14.3611C18.8277 13.596 19.0754 11.8901 19.5532 11.1766C19.6629 11.0228 19.8063 10.8972 19.972 10.8096C20.1377 10.7221 20.3212 10.675 20.5079 10.6722C20.642 10.6645 20.7753 10.6974 20.8912 10.7666C21.007 10.8358 21.1002 10.9383 21.159 11.0613C21.5454 11.8608 21.2892 13.5986 20.8233 14.2707Z" fill="white"/>
<path fill-rule="evenodd" clip-rule="evenodd" d="M40.8495 5.61273C40.7734 6.47342 40.6804 7.3341 40.5442 8.18187C38.8607 7.89612 37.1712 8.27999 35.9121 9.54864C34.3808 11.0858 33.4549 14.4545 34.8687 16.3601C35.902 17.751 38.218 17.7828 39.4348 16.6252L39.3689 17.1872H42.2075C42.6946 13.3227 43.2349 9.46515 43.804 5.61273H40.8495ZM39.9802 12.7822C39.8585 13.723 39.4966 15.0028 38.3474 15.0028C37.3403 15.0028 37.1974 13.8271 37.2668 13.0473C37.4037 11.4981 38.4971 9.74573 40.283 10.4653L39.9802 12.7822Z" fill="white"/>
<path fill-rule="evenodd" clip-rule="evenodd" d="M33.1477 9.21343C32.4847 8.43537 31.4788 8.04576 30.1298 8.04462C28.7244 8.04462 27.5781 8.47869 26.6908 9.34683C25.8035 10.215 25.293 11.4056 25.1594 12.9187C25.0309 14.3698 25.3009 15.4858 25.9695 16.2667C26.6381 17.0477 27.6528 17.437 29.0136 17.4347C30.4139 17.4347 31.5526 16.9997 32.4298 16.1299C33.3069 15.26 33.8129 14.0617 33.9476 12.5348C34.0773 11.1009 33.8106 9.99378 33.1477 9.21343ZM30.4088 14.4343C29.948 15.0962 28.7904 15.3157 28.3608 14.4954C27.9051 13.6262 28.1731 11.8153 28.6991 11.0286C29.1447 10.3512 30.353 10.0965 30.7674 10.9494C31.1901 11.8222 30.9551 13.6502 30.4088 14.4343Z" fill="white"/>
<path fill-rule="evenodd" clip-rule="evenodd" d="M23.7797 9.21343C23.1173 8.43537 22.1113 8.04576 20.7618 8.04462C19.357 8.04462 18.2109 8.47869 17.3236 9.34683C16.4363 10.215 15.9259 11.4056 15.7923 12.9187C15.6637 14.3698 15.9335 15.4858 16.6015 16.2667C17.2695 17.0477 18.2859 17.437 19.6507 17.4347C21.051 17.4347 22.1897 16.9997 23.0668 16.1299C23.944 15.26 24.4491 14.0617 24.5821 12.5348C24.7107 11.1009 24.4432 9.99378 23.7797 9.21343ZM21.0417 14.4343C20.5808 15.0962 19.4232 15.3157 18.9937 14.4954C18.5379 13.6262 18.8059 11.8153 19.3319 11.0286C19.7767 10.3521 20.9859 10.0965 21.3993 10.9494C21.823 11.8222 21.5879 13.6502 21.0417 14.4343Z" fill="white"/>
<path fill-rule="evenodd" clip-rule="evenodd" d="M14.5405 16.8695C11.9886 17.5856 8.21727 18.0495 6.18533 15.9864C3.90817 13.6755 4.95501 9.0149 7.14761 7.03532C9.43575 4.96968 12.5509 5.17108 15.3329 5.67717L15.2627 8.39262C13.366 7.88568 11.061 7.42952 9.45943 8.95207C8.30436 10.046 7.57209 12.653 8.72546 13.9983C9.45436 14.8495 10.7828 14.914 11.7882 14.6007L12.0122 12.9103H10.7574L11.1007 10.3937H15.3599L14.5405 16.8695Z" fill="white"/>
</svg>
