<svg width="33" height="34" viewBox="0 0 33 34" fill="none" xmlns="http://www.w3.org/2000/svg">
<g clip-path="url(#clip0_761_153)">
<path d="M32.8203 0H0V33.4066H32.8203V0Z" fill="#FF8900"/>
<path d="M13.0315 16.6601C13.0315 18.383 12.6594 19.7062 10.762 19.7062C8.63641 19.7062 8.40943 18.1512 8.40943 16.8921V7.01898L5.6853 7.62974V17.2915C5.6853 20.967 8.20178 22.3733 10.6379 22.3733C13.8157 22.3733 15.7546 20.2943 15.7546 17.6911V7.01898L13.0315 7.62974V16.6601Z" fill="white"/>
<path d="M22.624 11.0438C21.5702 11.0384 20.5407 11.3659 19.6773 11.9811V10.4107L17.0502 11.0573V25.8165L19.6712 25.206V21.4285C20.5379 22.0422 21.5683 22.3712 22.624 22.3713C25.5776 22.3713 27.971 19.8347 27.971 16.7066C27.971 13.5784 25.5766 11.0438 22.624 11.0438ZM22.4557 19.9377C20.703 19.9377 19.4225 18.4456 19.4225 16.7031C19.4225 14.9606 20.703 13.4687 22.4557 13.4687C24.2085 13.4687 25.4899 14.9596 25.4899 16.7031C25.4899 18.4466 24.2102 19.9377 22.4557 19.9377Z" fill="white"/>
</g>
<defs>
<clipPath id="clip0_761_153">
<rect width="32.8203" height="33.4066" fill="white"/>
</clipPath>
</defs>
</svg>
