<svg width="33" height="26" viewBox="0 0 33 26" fill="none" xmlns="http://www.w3.org/2000/svg">
<path d="M24.5386 2.78982C29.092 2.78982 31.4527 5.16994 31.4527 8.91465C31.4527 11.0171 30.4794 12.9271 28.2084 14.0359C29.1626 16.8127 30.1168 19.4962 31.3439 22.2711H23.9814L20.7219 11.2313C21.0188 11.3021 21.3219 11.3413 21.6265 11.3483C22.9184 11.3483 24.7142 11.2115 24.7142 9.61282C24.7142 8.2383 23.7104 7.82773 22.2448 7.82773H20.6207C18.5635 12.6395 16.6132 17.4612 14.6762 22.2651H6.82322C4.57516 16.0728 4.037 14.2798 1.36719 7.796H8.36518L10.8651 16.1601H10.9224L15.2735 2.78387L24.5386 2.78982Z" fill="#00A513"/>
</svg>
