<svg width="45" height="27" viewBox="0 0 45 27" fill="none" xmlns="http://www.w3.org/2000/svg">
<path fill-rule="evenodd" clip-rule="evenodd" d="M0.082452 0C0.0618262 1.36014 0.0176323 2.72028 0.0132124 4.08042C-0.0447923 5.9527 0.0883053 7.82613 0.410239 9.66821C2.45293 19.493 9.93055 25.3122 19.2026 26.0717H44.8V7.71915C44.8 3.66833 41.0299 0.0778992 37.2782 0.0778992C24.8791 0.0778992 12.4808 0.00467402 0.082452 0Z" fill="#BCCD19"/>
<path fill-rule="evenodd" clip-rule="evenodd" d="M4.74442 10.7284V10.8351C5.98123 10.8491 7.22467 10.8351 8.46148 10.8351C9.6983 10.8351 10.7576 10.9184 11.7638 10.3505C12.1852 10.1297 12.5475 9.80075 12.8177 9.39374C13.0879 8.98674 13.2574 8.51464 13.3108 8.02054C13.4013 7.46167 13.3021 6.88695 13.0308 6.39788C12.7834 5.9864 12.4005 5.68661 11.9561 5.55655C12.2506 5.49975 12.5305 5.37782 12.7774 5.19874C13.0243 5.01966 13.2327 4.78747 13.3888 4.51736C13.5571 4.18335 13.6613 3.81749 13.6956 3.44079C13.7298 3.06408 13.6934 2.68392 13.5885 2.32213C13.131 0.803068 11.355 0.899667 10.0092 0.899667C8.9079 0.899667 7.80515 0.907457 6.70388 0.899667C6.60075 1.67166 6.37385 2.5753 6.21915 3.3621L5.24164 8.28151C5.16798 8.66088 4.83649 10.5406 4.73999 10.7276L4.74442 10.7284ZM7.07514 9.1314L7.62613 6.42202C8.0497 6.39788 8.5182 6.41735 8.94692 6.41735C9.6018 6.41735 10.6884 6.30673 11.0928 6.88086C11.2192 7.12374 11.2806 7.3985 11.2704 7.67555C11.2602 7.9526 11.1787 8.22146 11.0347 8.45319C10.8908 8.68491 10.6898 8.87074 10.4534 8.99065C10.217 9.11057 9.95414 9.16004 9.69314 9.13374C8.82538 9.14309 7.95247 9.13374 7.07809 9.13374L7.07514 9.1314ZM7.91858 4.91388L8.26923 3.13385C8.30385 2.96325 8.33036 2.63217 8.42907 2.6049C9.14876 2.6049 10.0246 2.55739 10.7259 2.61425C10.8735 2.6123 11.0195 2.64645 11.1525 2.71401C11.2855 2.78158 11.402 2.88074 11.4928 3.00375C11.8191 3.55996 11.7042 4.92166 10.1749 4.9201C9.47216 4.9201 8.59923 4.96841 7.91784 4.9131L7.91858 4.91388ZM15.5855 11.0306C15.3255 10.9005 14.6529 10.9021 14.208 10.3217C13.3049 9.14464 13.7763 7.15585 16.1579 6.72584C16.8429 6.60197 18.3759 6.58717 18.7589 6.22883C19.2937 5.72793 18.9328 4.56721 17.5066 4.80169C17.2429 4.82119 16.9931 4.93387 16.7972 5.12164C16.6014 5.3094 16.4709 5.56135 16.4268 5.83699H14.6809C14.8761 3.09724 18.7066 3.07776 20.0252 3.93466C21.0506 4.60149 20.7095 5.91489 20.4473 7.19402C20.3258 7.78372 20.2064 8.36253 20.079 8.95924C19.8978 9.56651 19.8522 10.2099 19.9457 10.839H18.0753V10.1737C17.7452 10.5111 17.3436 10.7603 16.9041 10.9005C16.7435 10.9535 16.5166 10.9675 16.3759 11.0345L15.5855 11.0306ZM16.6728 9.70631C17.9906 9.70631 18.3309 8.68192 18.6028 7.41681C18.221 7.60497 17.8062 7.7066 17.3851 7.71517C16.9521 7.71431 16.5237 7.80958 16.1277 7.99483C15.9388 8.09153 15.7898 8.25775 15.7086 8.46234C15.6274 8.66692 15.6195 8.89582 15.6865 9.1061C15.7535 9.31637 15.8907 9.49359 16.0724 9.60452C16.2541 9.71545 16.4678 9.75247 16.6735 9.70864L16.6728 9.70631ZM31.3598 11.0306H32.3713C32.7363 10.9639 33.0969 10.8731 33.4512 10.7587C33.7567 10.6398 34.0404 10.4656 34.2895 10.2438C34.5263 10.0248 34.7335 9.77235 34.9053 9.49364C35.0844 9.20223 35.2282 8.88817 35.3333 8.55884L33.4917 8.55026C33.2221 8.86187 33.2604 9.01143 32.8486 9.29889C32.6118 9.48007 32.3283 9.58039 32.036 9.58644C31.7438 9.59248 31.4567 9.50395 31.2134 9.3327C30.97 9.16145 30.782 8.91566 30.6744 8.62824C30.5668 8.34083 30.5448 8.0255 30.6114 7.72452H35.6125C35.7785 6.919 35.7434 6.08167 35.5108 5.29481C34.6703 2.94066 31.519 3.10659 30.2807 4.29768C29.7623 4.78282 29.3589 5.38994 29.103 6.07013C28.8471 6.75033 28.7458 7.48458 28.8074 8.21374C28.8414 8.93289 29.1035 9.61896 29.5514 10.1612C29.7763 10.3904 30.0357 10.5784 30.319 10.7175C30.6571 10.8526 31.0056 10.9569 31.3606 11.0291L31.3598 11.0306ZM30.8169 6.46409C30.923 6.09296 31.108 5.75241 31.3576 5.46852C31.6344 5.19233 31.9866 5.01565 32.3639 4.96373C32.5728 4.91806 32.7887 4.92175 32.9962 4.97454C33.2036 5.02733 33.3974 5.12791 33.5639 5.2691C33.6971 5.43196 33.7952 5.62362 33.8511 5.83069C33.9071 6.03776 33.9197 6.25525 33.888 6.46798H30.8162L30.8169 6.46409ZM23.8852 4.63343L24.087 3.64409H22.2874L20.8738 10.8288L22.7508 10.8374C22.8384 10.1979 23.2664 8.22153 23.4137 7.46745C23.6207 6.44072 23.9007 5.32441 25.0174 5.05721C25.5868 4.92088 26.224 5.14991 26.2889 5.67185C26.2579 6.26202 26.1686 6.84714 26.0222 7.41759C25.8012 8.54715 25.5375 9.70708 25.3533 10.8382H27.2074C27.2811 10.6824 27.7282 8.29241 27.807 7.90836C27.9713 7.10988 28.3698 5.59394 28.2048 4.81494C27.8601 3.19383 25.8476 3.2211 24.8163 3.82093C24.5062 4.00431 24.2263 4.23978 23.9876 4.51814C23.9264 4.58669 23.9559 4.57734 23.88 4.63499L23.8852 4.63343ZM38.1141 11.0306C37.941 10.9527 37.4106 10.8958 37.1373 10.7891C36.6765 10.6587 36.2761 10.3558 36.0105 9.93674C35.745 9.51764 35.6323 9.01085 35.6935 8.51053L37.4364 8.49418C37.4438 9.0052 37.5182 9.22878 37.8297 9.44144C38.3756 9.81303 39.482 9.83095 39.8334 9.26928C39.9331 9.11239 39.9741 8.92199 39.9487 8.73492C39.9232 8.54785 39.8331 8.37741 39.6956 8.25658C39.0665 7.9673 38.4176 7.72851 37.7546 7.54223C37.0577 7.29217 36.5318 6.97044 36.408 6.16495C36.1333 4.38025 37.5638 3.56464 39.082 3.46337C39.8399 3.37997 40.6048 3.52018 41.2919 3.86845C41.5912 4.06214 41.8328 4.34103 41.9892 4.6732C42.1455 5.00537 42.2102 5.37737 42.1759 5.74663L40.4942 5.75208C40.3321 5.70456 40.5258 5.42179 40.1914 5.06422C39.731 4.57267 38.1878 4.67472 38.2496 5.53162C38.3233 6.50694 41.1962 6.20235 41.7317 7.94654C41.8903 8.51364 41.8351 9.12362 41.5777 9.64866C41.386 9.96605 41.1349 10.2386 40.8398 10.4496C40.5448 10.6606 40.2121 10.8056 39.8621 10.8756C39.6551 10.9317 39.1697 10.98 39.0415 11.0314L38.1141 11.0306Z" fill="#04234E"/>
<path fill-rule="evenodd" clip-rule="evenodd" d="M6.71261 18.4643C6.93361 18.3576 7.17302 18.286 7.40285 18.1987L12.0724 16.4187C12.3218 16.2707 12.6014 16.189 12.8873 16.1804C13.1732 16.1719 13.4567 16.2368 13.7136 16.3696C13.9455 16.5011 14.1429 16.6914 14.2882 16.9235C14.3676 17.0683 14.4334 17.2209 14.4849 17.3792C14.5659 17.6012 14.6418 17.8263 14.7155 18.0507C14.8311 18.4028 14.9409 18.7573 15.0543 19.1101L15.5803 20.746L15.4197 20.8613C15.331 20.9155 15.2375 20.9601 15.1405 20.9945C15.0057 21.0491 14.8701 21.1005 14.7346 21.1503C14.5328 21.2282 14.3295 21.2976 14.1284 21.3739L11.6591 22.3142C10.7679 22.6693 9.78014 22.6386 8.91014 22.2287C8.04014 21.8188 7.35802 21.0627 7.01169 20.1244V20.1174L6.50562 18.5641L6.71261 18.4643Z" fill="#BFBEBE"/>
<path fill-rule="evenodd" clip-rule="evenodd" d="M6.8136 18.7087L7.24158 20.0236C7.56264 20.8971 8.1967 21.6013 9.00595 21.9832C9.81521 22.365 10.7343 22.3938 11.5634 22.0631L14.0356 21.1213C14.2389 21.0434 15.1634 20.7154 15.2709 20.6391L14.8076 19.1963C14.5972 18.4754 14.3513 17.7666 14.0709 17.0728C13.9492 16.8771 13.7834 16.7165 13.5884 16.6054C13.362 16.4925 13.1131 16.4394 12.8631 16.4507C12.613 16.462 12.3692 16.5372 12.1527 16.67L7.4832 18.45C7.27031 18.5342 7.01617 18.6121 6.8136 18.7087Z" fill="#003065"/>
<path fill-rule="evenodd" clip-rule="evenodd" d="M4.6886 13.5124L8.96111 11.9162C9.07971 11.8718 9.19609 11.8219 9.31542 11.7799C9.60705 11.6559 9.93055 11.6441 10.2296 11.7464C10.4233 11.8213 10.5964 11.946 10.7334 12.1091C10.8703 12.2723 10.9668 12.4689 11.0141 12.6812L12.1728 16.0761L6.3129 18.2682L4.6886 13.5124Z" fill="#BFBEBE"/>
<path fill-rule="evenodd" clip-rule="evenodd" d="M5.01562 13.6767L6.46608 17.9223L11.8435 15.9093L10.7717 12.7692C10.7356 12.5956 10.659 12.4343 10.5488 12.3C10.4387 12.1657 10.2986 12.0627 10.1412 12.0003C9.76763 11.9161 9.37792 11.9763 9.04283 12.1701L5.01562 13.6767Z" fill="#7FAB30"/>
<path fill-rule="evenodd" clip-rule="evenodd" d="M36.6274 22.5577H37.3147C37.6681 22.495 38.01 22.3736 38.3275 22.1979C38.5964 21.9958 38.8356 21.753 39.0376 21.4773L38.8601 22.3638L40.6693 22.3544C40.7201 21.9649 40.8365 21.4897 40.9131 21.108L42.1389 14.9804C42.2273 14.5465 42.5175 12.8093 42.6435 12.56V12.4291L40.7739 12.4346L40.0203 16.1193C39.9643 16.0507 39.887 15.8747 39.831 15.7898C39.2756 14.9539 38.08 14.8495 37.1968 15.0887C36.7175 15.222 36.271 15.463 35.8876 15.7952C35.5043 16.1273 35.193 16.5429 34.9751 17.0136C34.4511 18.1211 34.2776 19.3773 34.4801 20.597C34.5874 21.1148 34.845 21.5843 35.2167 21.94C35.929 22.5523 36.2185 22.3856 36.6281 22.5632L36.6274 22.5577ZM38.0542 16.4932C40.55 16.0842 39.7809 20.6632 37.8774 21.0387C35.4532 21.517 35.9696 16.8321 38.0542 16.4932ZM24.1509 22.5577H24.8876C25.0614 22.5034 25.2376 22.4584 25.4158 22.423C25.8544 22.278 26.2557 22.0282 26.5885 21.693V22.363H28.4529C28.1796 21.0636 29.2345 18.3542 29.233 16.8523C29.233 14.7404 26.2629 14.8137 25.1226 15.1385C24.6173 15.2415 24.1568 15.5137 23.809 15.9147C23.4612 16.3158 23.2446 16.8245 23.1911 17.3657L24.9303 17.354C25.088 16.9279 25.0327 16.9466 25.2986 16.6646C25.8032 16.1356 27.236 16.159 27.4577 16.9427C27.8319 18.267 25.8135 18.0434 24.6445 18.2584C23.4953 18.4695 22.5502 19.0569 22.3418 20.2013C22.2359 20.6274 22.281 21.0799 22.4687 21.4733C22.6563 21.8667 22.9735 22.174 23.3605 22.3373C23.6147 22.4549 23.9661 22.4798 24.1487 22.5601L24.1509 22.5577ZM25.1557 21.2334C24.9527 21.267 24.7451 21.2226 24.5704 21.1083C24.3956 20.994 24.2653 20.8174 24.203 20.6103C24.1407 20.4033 24.1506 20.1795 24.2307 19.9795C24.3109 19.7794 24.4561 19.6163 24.6401 19.5196C25.0372 19.3369 25.4658 19.2427 25.899 19.2431C26.3178 19.2267 26.7299 19.1267 27.1137 18.9486C26.8131 20.121 26.587 21.2334 25.1565 21.2334H25.1557ZM18.2586 22.5577C17.9186 22.5125 17.5828 22.4375 17.2545 22.3334C16.8281 22.1764 16.4527 21.8943 16.1722 21.5201C15.8918 21.1458 15.7178 20.6949 15.6708 20.22C15.469 19.2197 15.5991 18.1764 16.0393 17.2657C16.4795 16.355 17.2028 15.6324 18.0877 15.2195C19.7017 14.5761 22.5664 15.091 22.5016 17.6687L20.6387 17.6625C20.6033 17.1133 20.4619 16.7666 20.0648 16.5914C19.6357 16.42 19.1604 16.4312 18.7389 16.6225C18.3989 16.8489 18.1142 17.157 17.908 17.5216C17.7018 17.8863 17.5799 18.2973 17.5522 18.7212C17.1352 21.3924 18.9518 21.3386 19.6825 20.7318C19.9644 20.4612 20.1742 20.1171 20.291 19.7339H22.1392C21.991 20.2851 21.7406 20.7996 21.4026 21.2475C21.0738 21.6763 20.6545 22.0176 20.1783 22.2438C19.8141 22.3871 19.4373 22.4915 19.0534 22.5554L18.2586 22.5577ZM32.3114 16.4636C32.5796 15.9153 33.0116 15.4762 33.5402 15.2144C34.0688 14.9526 34.6645 14.883 35.2344 15.0162C35.1461 15.6621 35.0189 16.3014 34.8536 16.9302C34.5187 16.8553 34.1769 16.8214 33.8348 16.829C33.4132 16.8734 33.0156 17.0571 32.6983 17.354C32.381 17.6508 32.16 18.0457 32.0668 18.4828C31.9114 18.9502 31.3398 21.8006 31.261 22.3622H29.3818L30.8109 15.1712L32.5788 15.1845L32.3114 16.4636Z" fill="#04234E"/>
</svg>
