<svg width="46" height="31" viewBox="0 0 46 31" fill="none" xmlns="http://www.w3.org/2000/svg">
<path d="M30.3884 0.835084C27.5528 0.834717 24.7808 1.66403 22.4232 3.21809C22.2599 3.31879 21.1328 4.10427 21.092 4.14696C19.2283 5.51651 17.9796 5.76302 16.28 5.33847C16.1779 5.31833 15.6863 5.13626 15.5221 5.09678C14.0622 4.55855 12.5004 4.34306 10.9468 4.46552C9.39321 4.58799 7.88584 5.04542 6.53113 5.80552C5.17642 6.56562 4.00741 7.60985 3.10665 8.86446C2.20589 10.1191 1.59536 11.5535 1.31817 13.0663C1.04098 14.5792 1.1039 16.1336 1.50248 17.6199C1.90105 19.1062 2.62557 20.488 3.62485 21.6677C4.62414 22.8475 5.87383 23.7965 7.28566 24.4476C8.69749 25.0988 10.237 25.4362 11.7956 25.4361C12.9381 25.4424 14.0736 25.258 15.1538 24.8907C17.6929 24.1431 19.0854 24.3453 20.682 25.4546C21.0087 25.677 21.7674 26.162 21.9307 26.2828C23.7502 27.6025 25.8609 28.4779 28.0897 28.8373C30.3185 29.1967 32.6019 29.0297 34.7526 28.3502C36.9034 27.6706 38.8602 26.4978 40.4625 24.928C42.0649 23.3581 43.2671 21.4359 43.9707 19.319C44.6742 17.2022 44.859 14.9509 44.5099 12.7499C44.1608 10.549 43.2878 8.46101 41.9624 6.65728C40.637 4.85355 38.897 3.38544 36.8851 2.37339C34.8732 1.36133 32.6468 0.834147 30.3884 0.835084Z" fill="#00765E"/>
<path d="M25.2508 17.1141C25.0103 17.3459 24.7252 17.5278 24.4123 17.6492C24.0993 17.7705 23.7649 17.8288 23.4288 17.8206C22.9644 17.8229 22.5097 17.6894 22.1221 17.4371L21.1763 18.9114C21.8438 19.3297 22.6176 19.5531 23.4084 19.5559C23.9791 19.5655 24.5461 19.4637 25.0767 19.2563C25.6074 19.0489 26.0912 18.74 26.5004 18.3475L25.2508 17.1141Z" fill="white"/>
<path d="M23.531 11.0568C22.3861 11.0418 21.2819 11.4756 20.461 12.263C19.64 13.0505 19.1695 14.1271 19.1527 15.2565C19.1346 16.102 19.3773 16.933 19.8486 17.6395L27.67 14.347C27.4506 13.4219 26.9241 12.5958 26.1742 11.9997C25.4243 11.4036 24.494 11.0717 23.531 11.0568ZM20.9495 15.5796C20.9325 15.4795 20.9257 15.378 20.929 15.2766C20.9326 14.9472 21.0024 14.6217 21.1344 14.3191C21.2663 14.0164 21.4578 13.7426 21.6977 13.5134C21.9376 13.2842 22.2213 13.1043 22.5322 12.9839C22.8431 12.8636 23.1751 12.8052 23.509 12.8123C23.8711 12.823 24.2271 12.9072 24.5548 13.0597C24.8825 13.2122 25.1748 13.4296 25.4135 13.6984L20.9495 15.5796Z" fill="white"/>
<path d="M30.1247 9.13617V17.3534L31.5785 17.9391L30.9031 19.5552L29.4665 18.9727C29.18 18.8511 28.9375 18.647 28.7707 18.387C28.5736 18.0867 28.4736 17.7344 28.484 17.3768V9.13617H30.1247Z" fill="white"/>
<path d="M17.532 9.13617V17.3534L18.9857 17.9391L18.3103 19.5552L16.8738 18.9727C16.5873 18.8511 16.3447 18.647 16.1779 18.387C15.9817 18.0865 15.8826 17.7342 15.8937 17.3768V9.13617H17.532Z" fill="white"/>
<path d="M37.2309 13.054C37.5325 13.1967 37.8026 13.3968 38.0256 13.6427C38.2487 13.8887 38.4203 14.1757 38.5306 14.4872C38.641 14.7987 38.6878 15.1287 38.6686 15.4581C38.6493 15.7876 38.5643 16.11 38.4184 16.407L40.0158 17.1747C40.4483 16.284 40.5535 15.2726 40.3134 14.3138C40.0733 13.355 39.5028 12.5083 38.6995 11.9187C37.8963 11.3291 36.9102 11.0332 35.9102 11.0817C34.9102 11.1303 33.9583 11.5202 33.2177 12.1847L34.4051 13.4737C34.7777 13.1298 35.2473 12.9056 35.7519 12.8306C36.2564 12.7557 36.7722 12.8336 37.2309 13.054Z" fill="#CAD459"/>
<path d="M35.0393 17.5784C34.7377 17.4357 34.4676 17.2356 34.2446 16.9897C34.0215 16.7437 33.8499 16.4568 33.7396 16.1452C33.6292 15.8337 33.5824 15.5037 33.6016 15.1743C33.6209 14.8448 33.7059 14.5224 33.8519 14.2255L32.2544 13.4577C31.8223 14.3484 31.7174 15.3596 31.9577 16.3181C32.198 17.2767 32.7685 18.1231 33.5716 18.7125C34.3748 19.3019 35.3606 19.5977 36.3604 19.5493C37.3602 19.5008 38.3119 19.1111 39.0526 18.4469L37.8651 17.1579C37.49 17.4975 37.0207 17.719 36.5173 17.7939C36.0139 17.8688 35.4993 17.7938 35.0393 17.5784Z" fill="white"/>
<path d="M14.2557 17.7008V15.2968C14.2538 14.3955 13.9611 13.5181 13.4198 12.7918C12.8786 12.0656 12.117 11.5282 11.2454 11.2575C10.4 10.9952 9.49447 10.9882 8.64503 11.2373C7.97933 11.4374 7.37434 11.7973 6.88424 12.2846C6.28008 12.8767 5.86778 13.6325 5.6996 14.456C5.53143 15.2796 5.61496 16.1338 5.9396 16.9105C6.26425 17.6871 6.81539 18.3512 7.52313 18.8185C8.23088 19.2858 9.06335 19.5352 9.91499 19.5352C10.583 19.5365 11.2421 19.3843 11.8399 19.0905L11.1866 17.5147C10.8115 17.718 10.3895 17.8223 9.96154 17.8176C9.62807 17.8177 9.29785 17.753 8.98974 17.6272C8.68164 17.5013 8.40169 17.3168 8.16589 17.0842C7.93009 16.8516 7.74306 16.5755 7.6155 16.2716C7.48794 15.9676 7.42233 15.6419 7.42244 15.3129C7.41707 14.9025 7.52309 14.498 7.72952 14.1416C7.90447 13.826 8.14413 13.5499 8.43322 13.3308C8.72231 13.1116 9.05451 12.9543 9.40864 12.8687C9.59634 12.8277 9.78808 12.8074 9.98033 12.8083C10.3406 12.8077 10.6969 12.8835 11.0249 13.0306C11.4687 13.2309 11.8452 13.5521 12.11 13.9565C12.3749 14.3609 12.5169 14.8315 12.5194 15.3129V17.6758C12.5058 18.0338 12.6061 18.387 12.8061 18.686C12.978 18.9416 13.219 19.1445 13.5019 19.2717L14.3006 19.594L14.976 17.9779L14.2557 17.7008Z" fill="white"/>
</svg>
