<svg width="65" height="43" viewBox="0 0 65 43" fill="none" xmlns="http://www.w3.org/2000/svg">
<path d="M27.1211 13.5574L24.4653 29.5237H28.7113L31.369 13.5574H27.1211Z" fill="#1A1F71"/>
<path d="M40.2515 13.231C41.8983 13.231 43.2172 13.5781 44.0586 13.9016L43.4829 17.3619L43.1023 17.1777C42.3183 16.8542 41.3118 16.5439 39.9229 16.566C38.2597 16.566 37.49 17.2756 37.49 17.9393C37.4803 18.6872 38.3897 19.1801 39.8744 19.9187C42.3253 21.0584 43.457 22.4404 43.4411 24.2568C43.4081 27.5712 40.5093 29.712 36.0439 29.712C34.1388 29.6919 32.3041 29.306 31.3119 28.8601L31.908 25.2859L32.4556 25.5396C33.8507 26.1355 34.754 26.3775 36.4541 26.3775C37.6751 26.3775 38.985 25.8888 38.9956 24.8185C39.0035 24.1197 38.4478 23.6207 36.7942 22.8379C35.1829 22.0743 33.0484 20.7943 33.072 18.5001C33.0973 15.3965 36.0539 13.231 40.2515 13.231Z" fill="#1A1F71"/>
<path fill-rule="evenodd" clip-rule="evenodd" d="M51.7077 13.5571H54.9901L58.4283 29.5132H54.4865C54.4865 29.5132 54.0967 27.6797 53.9697 27.1207C53.6414 27.1207 52.2702 27.1188 50.9811 27.117C49.8375 27.1154 48.7585 27.1138 48.5293 27.1138C48.3644 27.5459 47.6352 29.5132 47.6352 29.5132H43.1745L49.4833 14.8812C49.9298 13.8414 50.6909 13.5571 51.7077 13.5571ZM49.7822 23.867H53.3083C53.1383 23.0678 52.3249 19.2566 52.3249 19.2566L52.0378 17.88C51.925 18.1956 51.7679 18.6129 51.6482 18.9313C51.5404 19.2177 51.4628 19.424 51.4746 19.4039C51.4746 19.4039 50.1337 22.9467 49.7822 23.867Z" fill="#1A1F71"/>
<path d="M16.7003 24.4455L20.8592 13.5571L25.3591 13.557L18.6714 29.4931L14.177 29.4983L10.4076 15.6579C9.09462 14.9082 7.59457 14.3059 5.91553 13.8895L5.96982 13.5573H12.8197C13.7423 13.5926 14.4883 13.8947 14.7453 14.9058L16.1902 22.0235C16.2138 22.0934 16.2361 22.1632 16.2573 22.2328L16.7003 24.4455Z" fill="#1A1F71"/>
</svg>
