<svg width="30" height="31" viewBox="0 0 30 31" fill="none" xmlns="http://www.w3.org/2000/svg">
<g clip-path="url(#clip0_761_68)">
<path d="M24.0788 14.9345H21.4203C21.4828 14.6194 21.6481 14.335 21.8894 14.1276C22.1307 13.9201 22.4339 13.8019 22.7496 13.792C23.0739 13.7675 23.3948 13.8734 23.6434 14.087C23.8919 14.3007 24.0482 14.6049 24.0788 14.9345ZM29.1025 18.6744C28.1979 22.504 25.8528 25.8193 22.5717 27.9072C19.2905 29.9951 15.3354 30.6889 11.5568 29.8393C7.77832 28.9897 4.4783 26.6647 2.36652 23.3642C0.254732 20.0638 -0.500118 16.0515 0.264314 12.1905H1.74989V18.6898H3.6281V12.189H5.90832L6.12951 10.5456H0.66993C1.82099 6.83063 4.34354 3.71527 7.70632 1.85566C11.0691 -0.00395718 15.0097 -0.46269 18.6981 0.576069C22.3866 1.61483 25.5351 4.07001 27.4805 7.42454C29.4259 10.7791 30.0164 14.7712 29.1277 18.56C28.4527 17.6696 28.0796 16.5805 28.0643 15.4559V14.1227H29.0196L29.2596 12.78H28.0643V10.605L26.3216 11.3567V15.4061C26.2834 16.5793 26.6374 17.7311 27.3259 18.673L29.1025 18.6744ZM8.27572 12.6612H6.50342V18.6898H8.27572V12.6612ZM8.27572 10.5464H6.50342V11.8891H8.27572V10.5464ZM10.6446 15.6796C10.6214 15.4529 10.6485 15.2238 10.7238 15.0091C10.7991 14.7945 10.9207 14.5997 11.0796 14.4392C11.2386 14.2787 11.4309 14.1565 11.6423 14.0815C11.8538 14.0066 12.0791 13.9808 12.3016 14.0061C12.6234 14.0277 12.9361 14.1237 13.2159 14.287L13.7079 12.9465C13.1689 12.6622 12.5676 12.5226 11.9608 12.541C11.5522 12.5346 11.1463 12.6111 10.767 12.7658C10.3876 12.9206 10.0423 13.1507 9.75107 13.4426C9.45986 13.7345 9.22861 14.0824 9.07076 14.4661C8.91291 14.8499 8.83162 15.2617 8.83162 15.6777C8.83162 16.0938 8.91291 16.5056 9.07076 16.8893C9.22861 17.2731 9.45986 17.621 9.75107 17.9129C10.0423 18.2048 10.3876 18.4349 10.767 18.5896C11.1463 18.7444 11.5522 18.8209 11.9608 18.8145C12.413 18.8152 12.8601 18.7174 13.272 18.5278L13.4226 17.0729C13.0821 17.2713 12.6937 17.3686 12.3016 17.3537C12.0815 17.3668 11.8611 17.3325 11.6549 17.253C11.4487 17.1735 11.2613 17.0505 11.1049 16.8923C10.9486 16.734 10.8268 16.5439 10.7476 16.3344C10.6684 16.1249 10.6336 15.9008 10.6453 15.6766L10.6446 15.6796ZM19.7266 18.6913C19.5074 18.2151 19.3183 17.7253 19.1603 17.2247C19.0317 16.6022 18.8091 16.0038 18.5004 15.4508C18.3733 15.3408 18.226 15.2576 18.0671 15.206C17.9082 15.1544 17.7408 15.1354 17.5746 15.1501L19.5047 12.6649H17.5904L15.9514 15.0489H15.759V10.5449H14.0357V18.6847H15.759V16.1914H16.4795C17.2922 16.1914 17.223 16.8829 17.4881 17.6485C17.7043 18.2784 17.8743 18.6818 17.8743 18.6818L19.7266 18.6913ZM25.9268 15.6774C25.9464 15.2513 25.8768 14.8259 25.7225 14.4293C25.5683 14.0327 25.3329 13.6741 25.0319 13.3772C24.731 13.0804 24.3715 12.8521 23.9772 12.7075C23.583 12.563 23.163 12.5054 22.7452 12.5388C22.3287 12.5107 21.911 12.5717 21.5191 12.718C21.1272 12.8644 20.7698 13.0927 20.4699 13.3883C20.1701 13.6839 19.9345 14.0402 19.7782 14.4343C19.622 14.8283 19.5487 15.2513 19.563 15.6759C19.563 17.5026 20.8786 18.813 23.0846 18.813C23.6162 18.8062 24.1425 18.7052 24.64 18.5146L24.7582 17.1418C24.3242 17.3926 23.8285 17.5109 23.3303 17.4828C22.9099 17.5254 22.4889 17.409 22.1475 17.1558C21.8062 16.9026 21.5683 16.5303 21.4794 16.11H25.9268V15.6774Z" fill="#E80000"/>
</g>
<defs>
<clipPath id="clip0_761_68">
<rect width="29.5385" height="30.0659" fill="white"/>
</clipPath>
</defs>
</svg>
