<svg width="64" height="43" viewBox="0 0 64 43" fill="none" xmlns="http://www.w3.org/2000/svg">
<path d="M17.8604 14.5191C17.5861 14.8583 17.2363 15.1307 16.8379 15.3154C16.4396 15.5 16.0034 15.592 15.5632 15.5841C15.535 15.1606 15.5931 14.7358 15.734 14.3347C15.8749 13.9336 16.0958 13.5642 16.3838 13.2483C16.9632 12.588 17.7799 12.1742 18.6626 12.0938C18.7258 12.9741 18.4381 13.8441 17.8604 14.5191V14.5191ZM18.6534 15.7542C17.3864 15.6828 16.3016 16.4612 15.7 16.4612C15.0894 16.4612 14.1685 15.79 13.1658 15.8079C12.5136 15.824 11.877 16.0076 11.319 16.3404C10.761 16.6732 10.301 17.1436 9.98448 17.7053C8.61713 20.0143 9.62897 23.4331 10.9507 25.3126C11.598 26.2433 12.3726 27.2636 13.3937 27.2278C14.36 27.192 14.743 26.6103 15.9096 26.6103C17.0856 26.6103 17.4228 27.2278 18.4438 27.2099C19.5012 27.192 20.1666 26.2791 20.8138 25.3484C21.2706 24.6901 21.6269 23.9694 21.8712 23.2094C21.2628 22.9489 20.7443 22.5202 20.3786 21.9753C20.0129 21.4304 19.8158 20.7927 19.8111 20.1396C19.8202 19.5598 19.9778 18.9917 20.2694 18.4879C20.561 17.9841 20.9772 17.561 21.4793 17.2578C21.1578 16.8098 20.7355 16.4409 20.2453 16.1801C19.7551 15.9193 19.2103 15.7735 18.6534 15.7542ZM25.9733 13.1587V27.1115H28.1793V22.3412H31.233C34.0224 22.3412 35.9823 20.4618 35.9823 17.741C35.9823 15.0203 34.0588 13.1587 31.3059 13.1587H25.9733ZM28.1793 14.9845H30.7225C32.6368 14.9845 33.7307 15.9868 33.7307 17.7499C33.7307 19.513 32.6368 20.5243 30.7134 20.5243H28.1793V14.9845ZM40.0113 27.2188C40.6662 27.2365 41.3138 27.0806 41.8864 26.7672C42.459 26.4539 42.9354 25.9947 43.2656 25.4377H43.3112V27.1114H45.3531V20.1664C45.3531 18.1527 43.7123 16.855 41.1873 16.855C38.8446 16.855 37.1126 18.1707 37.0488 19.9785H39.036C39.2001 19.1193 40.0113 18.5555 41.1234 18.5555C42.4727 18.5555 43.2292 19.173 43.2292 20.3096V21.0793L40.4763 21.2404C37.9147 21.3926 36.5292 22.4218 36.5292 24.2117C36.5292 26.0196 37.9603 27.2188 40.0113 27.2188ZM40.6039 25.563C39.428 25.563 38.6805 25.0082 38.6805 24.1579C38.6805 23.2808 39.4006 22.7708 40.777 22.6901L43.2291 22.538V23.3256C43.2292 24.6324 42.0988 25.5632 40.6039 25.5632V25.563ZM48.0787 30.9062C50.23 30.9062 51.2418 30.1007 52.126 27.6574L56.0002 16.9894H53.7577L51.1597 25.2321H51.1142L48.5162 16.9894H46.21L49.9474 27.1473L49.7467 27.7649C49.4094 28.812 48.8625 29.2147 47.8871 29.2147C47.7139 29.2147 47.3766 29.1968 47.2399 29.1789V30.8525C47.5179 30.8894 47.7982 30.9073 48.0787 30.9062V30.9062Z" fill="black"/>
</svg>
