<svg width="64" height="43" viewBox="0 0 64 43" fill="none" xmlns="http://www.w3.org/2000/svg">
<path d="M24.3599 23.7508C23.8226 23.7508 23.3548 23.9171 22.9707 24.308C22.5778 24.7155 22.4252 25.2969 22.4252 25.8763C22.4252 26.4934 22.5736 27.0952 22.9562 27.5022C23.3418 27.9104 23.8178 28.0535 24.3707 28.0535C24.9318 28.0535 25.3875 27.8271 25.7344 27.4784C26.1318 27.0764 26.3204 26.5302 26.3204 25.9437C26.3204 25.3013 26.13 24.7306 25.7448 24.3241C25.4137 23.9744 24.9351 23.7508 24.3599 23.7508ZM21.0615 31.6931V22.6099H22.5344V23.2775C22.7378 22.9518 23.1329 22.7208 23.4433 22.616C23.755 22.5141 24.078 22.4613 24.4073 22.4613C25.2211 22.4613 26.0908 22.7343 26.7976 23.4641C27.4499 24.1384 27.7951 24.9583 27.7951 25.9291C27.7951 26.3749 27.7092 26.8136 27.5384 27.2345C27.3731 27.6573 27.1355 28.0296 26.8318 28.3394C26.5106 28.6738 26.145 28.9263 25.743 29.0971C25.3419 29.2664 24.9666 29.3526 24.4744 29.3526C24.1163 29.3526 23.7709 29.2983 23.4442 29.1852C23.123 29.0822 22.6729 28.8254 22.5104 28.5452V31.6931H21.0615" fill="#034EA2"/>
<path d="M37.8922 31.6931L39.1352 28.8289L36.2837 22.6101H37.8358L39.8621 27.2789L41.7308 22.6101H43.2919L39.4159 31.6931H37.8922Z" fill="#034EA2"/>
<path d="M30.7123 24.3244C30.3271 24.7306 30.1384 25.3015 30.1384 25.9439C30.1384 26.5301 30.3271 27.0766 30.7244 27.4786C31.0709 27.8273 31.5261 28.0537 32.0872 28.0537C32.6415 28.0537 33.1161 27.9106 33.5 27.5024C33.8857 27.0954 34.031 26.4936 34.031 25.8765C34.031 25.2971 33.8802 24.7166 33.4883 24.3082C33.1016 23.9146 32.6353 23.751 32.0984 23.751C31.5219 23.751 31.0442 23.9746 30.7123 24.3244ZM33.9471 29.2327V28.5454C33.7851 28.8256 33.3349 29.0824 33.0146 29.1854C32.6875 29.2985 32.3388 29.3528 31.984 29.3528C31.4918 29.3528 31.1169 29.2666 30.7141 29.0973C30.3132 28.9265 29.9478 28.674 29.6271 28.3391C29.322 28.0296 29.0844 27.6575 28.9202 27.2356C28.7487 26.8121 28.6611 26.3751 28.6611 25.9293C28.6611 24.9583 29.0063 24.1386 29.6594 23.4643C30.3676 22.7345 31.2369 22.4615 32.0524 22.4615C32.3796 22.4615 32.7025 22.5143 33.0146 22.6173C33.3263 22.721 33.7223 22.952 33.9257 23.2777V22.6101H35.3964V29.2327H33.9471" fill="#034EA2"/>
<path d="M44.8347 18.4076L44.759 13.9855H46.1637V19.5652H44.1442L42.7457 14.9845H42.7096L42.7895 19.5652H41.397V13.9855H43.4994L44.8041 18.4076H44.8347Z" fill="#034EA2"/>
<path d="M19.324 14.5046L18.5496 19.616H17.0186L18.0681 13.9851H20.5928L21.6408 19.616H20.1147L19.3579 14.5046H19.324Z" fill="#034EA2"/>
<path d="M25.934 18.2928L26.6354 13.9853H28.9454L29.0722 19.616H27.653L27.6134 14.5528H27.5859L26.6378 19.616H25.2028L24.2512 14.5528H24.2195L24.1842 19.616H22.7666L22.8956 13.9853H25.2078L25.9056 18.2928H25.934Z" fill="#034EA2"/>
<path d="M37.821 18.7722C38.2196 18.7722 38.3383 18.504 38.3671 18.3682C38.3788 18.3078 38.3788 18.2251 38.3788 18.1525V13.9861H39.8182V18.0232C39.8182 18.1285 39.8067 18.3393 39.8021 18.3955C39.705 19.4477 38.8641 19.7856 37.821 19.7856C36.7797 19.7856 35.9428 19.4477 35.8468 18.3955C35.8396 18.3393 35.8292 18.1285 35.8327 18.0232V13.9861H37.2673V18.1525C37.2625 18.2251 37.2695 18.3078 37.2786 18.3682C37.3056 18.504 37.4289 18.7722 37.821 18.7722Z" fill="#034EA2"/>
<path d="M14.6316 18.0272C14.6849 18.1639 14.6695 18.3389 14.6429 18.4441C14.5973 18.632 14.4696 18.825 14.0877 18.825C13.7344 18.825 13.522 18.6211 13.522 18.3129L13.5176 17.7665H12V18.2011C12 19.4593 12.9923 19.8364 14.0556 19.8364C15.0858 19.8364 15.9289 19.4899 16.0616 18.5515C16.1316 18.0631 16.0814 17.7448 16.0581 17.626C15.8195 16.4435 13.6664 16.097 13.5057 15.4364C13.4782 15.3196 13.4828 15.2041 13.4991 15.1411C13.54 14.9567 13.6635 14.7605 14.0164 14.7605C14.3519 14.7605 14.546 14.9677 14.546 15.2684V15.6213H15.961V15.2258C15.961 13.9973 14.85 13.8057 14.0461 13.8057C13.0401 13.8057 12.2153 14.1386 12.0649 15.0585C12.0262 15.3072 12.0207 15.5318 12.0762 15.8144C12.3243 16.9687 14.3389 17.299 14.6316 18.0272Z" fill="#034EA2"/>
<path d="M33.0634 18.0208C33.1202 18.1543 33.0964 18.3264 33.0746 18.4318C33.0315 18.6165 32.901 18.8044 32.5289 18.8044C32.1765 18.8044 31.9645 18.6042 31.9645 18.2986V17.7568H30.4575V18.1904C30.4575 19.4367 31.443 19.8066 32.4997 19.8066C33.5105 19.8066 34.3468 19.4643 34.4808 18.5336C34.5488 18.0528 34.4993 17.7373 34.4736 17.6153C34.2371 16.4498 32.1076 16.1047 31.9507 15.4476C31.9245 15.3384 31.9317 15.2201 31.9438 15.159C31.9817 14.9805 32.105 14.785 32.4563 14.785C32.7882 14.785 32.98 14.9851 32.98 15.2846V15.632H34.3782V15.2413C34.3782 14.0275 33.28 13.8374 32.4886 13.8374C31.4895 13.8374 30.6713 14.1609 30.5264 15.0755C30.4809 15.3202 30.4751 15.5421 30.5374 15.8262C30.7809 16.9693 32.7746 17.2966 33.0634 18.0208Z" fill="#034EA2"/>
<path d="M49.6476 18.7154C50.0557 18.7154 50.2001 18.4613 50.2263 18.3077C50.2353 18.2443 50.2393 18.164 50.2389 18.0927V17.2779H49.6597V16.4519H51.6666V17.9649C51.6666 18.0704 51.6622 18.148 51.6464 18.3372C51.5521 19.3568 50.6562 19.7278 49.6498 19.7278C48.6471 19.7278 47.7554 19.3568 47.6633 18.3372C47.6411 18.148 47.6411 18.0704 47.6411 17.9649V15.596C47.6411 15.4945 47.6526 15.3169 47.6673 15.2259C47.7904 14.1672 48.6471 13.8331 49.6498 13.8331C50.6562 13.8331 51.5407 14.1637 51.6413 15.2259C51.6622 15.3998 51.6521 15.596 51.6521 15.596L51.6554 15.7793H50.2263V15.4647C50.2263 15.4647 50.2263 15.3291 50.2065 15.249C50.1825 15.1285 50.072 14.8428 49.6386 14.8428C49.2318 14.8428 49.1085 15.1134 49.0761 15.249C49.0585 15.3245 49.0552 15.4254 49.0552 15.517V18.0927C49.0552 18.164 49.0585 18.2443 49.0651 18.3077C49.0931 18.4613 49.2357 18.7154 49.6476 18.7154Z" fill="#034EA2"/>
</svg>
