<svg width="65" height="43" viewBox="0 0 65 43" fill="none" xmlns="http://www.w3.org/2000/svg">
<path d="M44.6686 14.6448L43.6525 16.9167H45.6902L44.6686 14.6448ZM32.9439 16.0527C33.1354 15.9605 33.2482 15.7599 33.2482 15.5109C33.2482 15.2668 33.1297 15.09 32.9382 15.007C32.7638 14.9149 32.4954 14.9043 32.2381 14.9043H30.4203V16.1702H32.2137C32.5009 16.1702 32.7409 16.1663 32.9439 16.0527ZM9.65122 14.6448L8.64666 16.9167H10.6618L9.65122 14.6448ZM56.4223 29.1995H53.5715V27.9772H56.4108C56.6923 27.9772 56.8894 27.9431 57.0081 27.8359C57.1203 27.7404 57.1838 27.6054 57.1826 27.4643C57.1826 27.2982 57.1111 27.1663 57.0022 27.0874C56.8953 27.0003 56.7391 26.9607 56.482 26.9607C55.0959 26.9173 53.3667 27.0002 53.3667 25.1964C53.3667 24.3696 53.9356 23.4993 55.4848 23.4993H58.4254V22.3652H55.6933C54.8688 22.3652 54.2698 22.5474 53.8457 22.8308V22.3652H49.8047C49.1586 22.3652 48.4001 22.5129 48.0414 22.8308V22.3652H40.8247V22.8308C40.2505 22.4484 39.2813 22.3652 38.8342 22.3652H34.0742V22.8308C33.6199 22.4247 32.6093 22.3652 31.9937 22.3652H26.6664L25.4476 23.5825L24.3058 22.3652H16.3479V30.3198H24.1556L25.4116 29.0829L26.5949 30.3198L31.4076 30.3237V28.4525H31.8809C32.5194 28.4619 33.2725 28.438 33.9371 28.1729V30.3195H37.9068V28.2462H38.0982C38.3425 28.2462 38.3667 28.2557 38.3667 28.481V30.3191H50.4261C51.1917 30.3191 51.9921 30.1384 52.4352 29.8099V30.3191H56.2604C57.0563 30.3191 57.8337 30.2161 58.4252 29.9525V28.4707C58.0667 28.9546 57.3677 29.1999 56.4222 29.1999L56.4223 29.1995ZM31.9441 27.3213H30.102V29.2333H27.2328L25.415 27.3463L23.526 29.2333H17.6785V23.5329H23.6159L25.4321 25.4015L27.3098 23.5329H32.0269C33.1984 23.5329 34.5147 23.8323 34.5147 25.4109C34.5147 26.9944 33.2344 27.3213 31.9441 27.3213V27.3213ZM40.8014 27.0629C41.0099 27.3411 41.04 27.6008 41.0461 28.1034V29.2334H39.5638V28.5203C39.5638 28.1773 39.5997 27.6695 39.3252 27.4044C39.1098 27.2003 38.7809 27.1516 38.2421 27.1516H36.6645V29.2334H35.1813V23.533H38.5893C39.337 23.533 39.8812 23.5637 40.3656 23.802C40.8315 24.0617 41.1247 24.4176 41.1247 25.0678C41.1246 25.9776 40.467 26.4417 40.0784 26.5844C40.4068 26.6962 40.6753 26.8968 40.8014 27.0629V27.0629ZM46.8994 24.7119H43.4425V25.7481H46.8149V26.9113H43.4425V28.0454L46.8994 28.0505V29.2333H41.9724V23.5329H46.8994V24.7119V24.7119ZM50.6928 29.2333H47.8177V28.0109H50.6814C50.9615 28.0109 51.16 27.9767 51.2844 27.8697C51.3859 27.7815 51.4589 27.6534 51.4589 27.4981C51.4589 27.3319 51.3798 27.2 51.2787 27.1209C51.1657 27.034 51.0099 26.9946 50.753 26.9946C49.3724 26.9509 47.6435 27.0339 47.6435 25.2301C47.6435 24.4033 48.2065 23.533 49.7541 23.533H52.7138V24.7461H50.0056C49.7371 24.7461 49.5626 24.7556 49.4143 24.8493C49.2523 24.9417 49.1924 25.0785 49.1924 25.2592C49.1924 25.4743 49.3298 25.6207 49.5154 25.6839C49.6712 25.7339 49.8383 25.7485 50.0899 25.7485L50.8846 25.7685C51.6858 25.7862 52.2361 25.9144 52.5705 26.2268C52.8577 26.5012 53.0121 26.8478 53.0121 27.4345C53.0119 28.6608 52.1816 29.2333 50.6928 29.2333V29.2333ZM39.2434 24.8038C39.0651 24.706 38.8019 24.7008 38.5392 24.7008H36.7213V25.9811H38.5148C38.802 25.9811 39.0462 25.9717 39.2434 25.8636C39.4348 25.7568 39.5493 25.5602 39.5493 25.3164C39.5493 25.0726 39.4348 24.8961 39.2434 24.8038ZM55.7375 24.7007C55.469 24.7007 55.2904 24.7101 55.1402 24.8037C54.9844 24.8961 54.9246 25.033 54.9246 25.2139C54.9246 25.4287 55.0561 25.5752 55.2473 25.6385C55.4032 25.6885 55.5702 25.7031 55.8161 25.7031L56.6164 25.7227C57.4236 25.7412 57.9628 25.8694 58.2914 26.1818C58.3513 26.2251 58.3872 26.2739 58.4283 26.3228V24.7008H55.7377L55.7375 24.7007V24.7007ZM31.9952 24.7007H30.0703V26.1526H31.9781C32.5452 26.1526 32.8979 25.8928 32.8982 25.3997C32.8979 24.9012 32.5281 24.7007 31.9952 24.7007V24.7007ZM19.1488 24.7007V25.7371H22.3896V26.9002H19.1488V28.0343H22.7782L24.4645 26.362L22.8499 24.7007H19.1488ZM28.6262 28.687V24.117L26.3598 26.3652L28.6262 28.687V28.687ZM19.2727 19.5348V20.517H31.606L31.6003 18.4391H31.839C32.0061 18.4445 32.0548 18.4587 32.0548 18.7133V20.5171H38.4337V20.0333C38.9482 20.2877 39.7484 20.5171 40.8014 20.5171H43.485L44.0594 19.2513H45.3327L45.8943 20.5171H51.0657V19.3147L51.8486 20.517H55.9928V12.5688H51.8917V13.5075L51.3174 12.5688H47.1091V13.5075L46.5817 12.5688H40.8972C39.9455 12.5688 39.1093 12.6914 38.4337 13.033V12.5688H34.5107V13.033C34.0807 12.6809 33.4949 12.5688 32.8436 12.5688H18.512L17.5505 14.6218L16.5629 12.5688H12.049V13.5075L11.553 12.5688H7.70329L5.91559 16.348V19.3709L8.55907 13.6719H10.7525L13.263 19.0677V13.6719H15.6726L17.6045 17.538L19.3793 13.6719H21.8372V19.3709H20.324L20.3185 14.9075L18.1778 19.3709H16.8817L14.7355 14.9036V19.3709H11.7328L11.1656 18.0997H8.09189L7.51882 19.3709H5.91553V20.5175H8.43795L9.00665 19.2516H10.28L10.8473 20.5175H15.81V19.5496L16.253 20.5215H18.8292L19.2723 19.535L19.2727 19.5348ZM38.7075 14.3361C39.1845 13.8813 39.9321 13.6715 40.9493 13.6715H42.3785V14.8927H40.9793C40.4408 14.8927 40.1363 14.9666 39.8435 15.2304C39.5917 15.4703 39.419 15.9239 39.419 16.5212C39.419 17.1318 39.5507 17.572 39.8249 17.8596C40.0522 18.0851 40.4653 18.1535 40.8538 18.1535H41.517L43.5975 13.6717H45.8094L48.3088 19.0622V13.6718H50.5565L53.1514 17.6409V13.6718H54.6636V19.3707H52.5716L49.7734 15.0933V19.3707H46.7669L46.1925 18.0995H43.1258L42.5685 19.3707H40.8409C40.1235 19.3707 39.215 19.2243 38.7005 18.7403C38.1816 18.2565 37.9119 17.601 37.9119 16.5647C37.9116 15.7194 38.0727 14.9467 38.7075 14.3361V14.3361ZM35.6711 13.6716H37.1773V19.3707H35.6711V13.6716ZM28.88 13.6716H32.2753C33.0296 13.6716 33.5857 13.6901 34.063 13.9446C34.53 14.1991 34.81 14.5708 34.81 15.2064C34.81 16.1151 34.1527 16.5845 33.7699 16.7255C34.0928 16.839 34.3689 17.0394 34.5004 17.2054C34.7088 17.4889 34.7447 17.7421 34.7447 18.251V19.3706H33.2558L33.2502 18.6519C33.2502 18.3089 33.2857 17.8157 33.0172 17.5417C32.8015 17.3414 32.4726 17.2977 31.9411 17.2977H30.3564V19.3707H28.8802L28.88 13.6716V13.6716ZM22.9288 13.6716H27.8604V14.8584H24.4052V15.8856H27.7774V17.0539H24.4052V18.192H27.8604V19.3706H22.9288V13.6716V13.6716Z" fill="#3285D2"/>
</svg>
