<svg width="63" height="48" viewBox="0 0 63 48" fill="none" xmlns="http://www.w3.org/2000/svg">
<g clip-path="url(#clip0_26280_29210)">
<path d="M59.8209 33.8054C61.5769 33.8054 62.9999 32.3858 62.9999 30.634V22.0004C62.9999 15.1031 58.113 9.90039 51.6328 9.90039C45.1525 9.90039 40.2656 15.1016 40.2656 22.0004V30.634C40.2656 32.3858 41.6886 33.8054 43.4446 33.8054C45.2005 33.8054 46.6235 32.3858 46.6235 30.634V22.0004C46.6235 18.293 48.5436 15.9898 51.6328 15.9898C54.7219 15.9898 56.642 18.293 56.642 22.0004V30.634C56.642 32.3858 58.065 33.8054 59.8209 33.8054Z" fill="#00EB33"/>
<path d="M25.6221 9.90039C18.9344 9.90039 13.4932 15.3286 13.4932 22.0004C13.4932 28.6722 18.9344 34.1004 25.6221 34.1004C32.3099 34.1004 37.7511 28.6722 37.7511 22.0004C37.7511 15.3286 32.3099 9.90039 25.6221 9.90039ZM25.6221 28.011C22.3007 28.011 19.5971 25.3154 19.5971 22.0004C19.5971 18.6869 22.2992 15.9898 25.6221 15.9898C28.9435 15.9898 31.6471 18.6854 31.6471 22.0004C31.6471 25.3139 28.9451 28.011 25.6221 28.011Z" fill="#00EB33"/>
<path d="M53.1848 5.81297H54.1898C54.2316 5.81297 54.2672 5.78516 54.2672 5.74345V2.97372C54.2672 2.18898 54.6543 1.77499 55.3217 1.77499C55.9891 1.77499 56.3684 2.18898 56.3684 2.97372V5.74345C56.3684 5.78516 56.4041 5.81297 56.4459 5.81297H57.4508C57.4926 5.81297 57.5282 5.78516 57.5282 5.74345V2.98144C57.5282 1.79662 56.867 0.758545 55.3217 0.758545C53.7748 0.758545 53.1074 1.79662 53.1074 2.98144V5.74345C53.1074 5.78516 53.143 5.81297 53.1848 5.81297Z" fill="#00EB33"/>
<path d="M46.1623 5.87468C46.5277 5.87468 46.7662 5.83297 46.8715 5.79127C46.9071 5.77736 46.9272 5.74183 46.9272 5.71403V4.88604C46.9272 4.83661 46.9056 4.8088 46.8436 4.8088C46.7941 4.8088 46.6532 4.83661 46.5417 4.83661C46.1066 4.83661 45.9161 4.67596 45.9161 4.29749V1.96338H46.8436C46.8854 1.96338 46.921 1.92785 46.921 1.88614V0.982461C46.921 0.940752 46.8854 0.905223 46.8436 0.905223H45.8805V0.118946C45.882 0.0355292 45.8464 0 45.7829 0H44.8337C44.7563 0 44.7207 0.0355292 44.7207 0.118946V4.41644C44.7207 5.46069 45.3045 5.87468 46.1608 5.87468H46.1623Z" fill="#00EB33"/>
<path d="M42.0221 5.93176C43.154 5.93176 43.9623 5.23816 43.9623 4.33294C43.9623 3.31649 43.2872 3.02145 42.3674 2.82526L41.9106 2.7264C41.5669 2.64916 41.3764 2.48851 41.3764 2.21509C41.3764 1.86443 41.7279 1.67597 42.2126 1.67597C42.8939 1.67597 43.3584 1.98492 43.4281 1.98492C43.4637 1.98492 43.5055 1.95711 43.5195 1.92159L43.7022 1.2419C43.7378 1.15076 43.7301 1.12913 43.6666 1.09514C43.2593 0.885059 42.8227 0.766113 42.2048 0.766113C41.059 0.766113 40.2646 1.42572 40.2646 2.30159C40.2646 3.12958 40.9042 3.58528 41.8177 3.78146L42.2823 3.88033C42.6554 3.95757 42.866 4.10432 42.866 4.41945C42.866 4.7423 42.6136 5.0219 42.0159 5.0219C41.172 5.0219 40.596 4.68514 40.5047 4.68514C40.4489 4.68514 40.4272 4.71295 40.4056 4.80409L40.2863 5.37256C40.2507 5.4915 40.2863 5.56874 40.3638 5.60427C40.6518 5.76492 41.4384 5.9333 42.0221 5.9333V5.93176Z" fill="#00EB33"/>
<path d="M49.9034 4.95717C49.1648 4.95717 48.4912 4.40261 48.4912 3.35836C48.4912 2.31411 49.1663 1.77345 49.9034 1.77345C50.6405 1.77345 51.3094 2.31256 51.3094 3.35836C51.3094 4.41033 50.6482 4.95717 49.9034 4.95717ZM49.9034 5.96744C51.3791 5.96744 52.4552 4.86603 52.4552 3.3599C52.4552 1.85223 51.3806 0.758545 49.9034 0.758545C48.4262 0.758545 47.3516 1.85223 47.3516 3.3599C47.3516 4.86758 48.4339 5.96744 49.9034 5.96744Z" fill="#00EB33"/>
<path d="M63.0004 3.30258C63.0004 1.7532 62.1085 0.756836 60.6885 0.756836C59.3538 0.756836 58.2002 1.781 58.2002 3.33657C58.2002 4.99872 59.3817 5.96573 60.6452 5.96573C61.7059 5.96573 62.3191 5.54865 62.6969 5.04043C62.7697 4.94156 62.7851 4.89985 62.7851 4.87205C62.7851 4.84424 62.7666 4.82262 62.7031 4.76701L62.2602 4.38082C62.1549 4.28968 62.1193 4.26187 62.0852 4.26187C62.0512 4.26187 62.0295 4.2835 62.0016 4.31748C61.6997 4.72375 61.277 4.95547 60.7087 4.95547C59.9902 4.95547 59.5117 4.46887 59.3909 3.6795H62.6334C62.8579 3.6795 62.9988 3.60844 62.9988 3.30104L63.0004 3.30258ZM60.6467 1.73157C61.4132 1.73157 61.8189 2.24752 61.8421 2.81908H59.408C59.5412 2.20581 59.9577 1.73157 60.6467 1.73157Z" fill="#00EB33"/>
<path d="M24.191 38.248C25.2796 37.1002 27.1687 36.9844 28.3718 38.0116C31.3495 40.5574 34.273 41.9322 38.6365 41.9322C43 41.9322 45.9234 40.5558 48.9011 38.0116C50.1042 36.9844 51.9933 37.1002 53.0819 38.248C54.2943 39.527 54.1937 41.5167 52.8465 42.6536C48.7323 46.1216 44.4044 48.0015 38.638 48.0015C32.8716 48.0015 28.5437 46.1216 24.4295 42.6536C23.0808 41.5167 22.9801 39.5286 24.1941 38.248H24.191Z" fill="#00EB33"/>
<path d="M0 23.8974C0 29.511 3.99034 33.4176 9.33247 33.7822C9.33247 33.7822 10.054 33.8023 10.1934 33.7992C11.8053 33.7606 13.1138 32.4985 13.1138 30.892C13.1138 29.287 11.8069 27.9863 10.1934 27.9863C7.95591 27.9863 6.35172 26.2021 6.28204 24.0379V15.9898H9.91779C11.4941 15.9898 12.7731 14.7169 12.7731 13.1474C12.7731 11.578 11.4941 10.3051 9.91779 10.3051H6.28204V7.9818C6.28204 6.25477 4.87605 4.85523 3.14024 4.85523C1.40599 4.85368 0 6.25477 0 7.9818V14.4188V23.8974Z" fill="#00EB33"/>
</g>
<defs>
<clipPath id="clip0_26280_29210">
<rect width="63" height="48" fill="white"/>
</clipPath>
</defs>
</svg>
