<svg width="122" height="24" viewBox="0 0 122 24" fill="none" xmlns="http://www.w3.org/2000/svg">
<g clip-path="url(#clip0_26171_32334)">
<path d="M0.898438 16.1713H4.97805C5.1606 17.9207 6.5081 19.0152 8.51154 19.0152C10.2597 19.0152 11.4262 18.1405 11.4262 17.046C11.4262 12.9637 1.37184 16.8633 1.37184 9.09968C1.37184 5.89204 4.17667 3.63184 7.96543 3.63184C12.2647 3.63184 15.215 6.00196 15.3975 9.5734H11.3164C11.0627 7.85966 9.49548 6.98499 8.07527 6.98499C6.47251 6.98499 5.41587 7.71414 5.41587 8.95416C5.41587 12.9281 15.6172 8.55321 15.6172 16.8649C15.6172 20.328 12.8124 22.5882 8.51309 22.5882C4.06683 22.5866 1.11657 20.1081 0.898438 16.1713Z" fill="white"/>
<path d="M21.8764 0.599121V3.92132H26.3428V7.67543H21.8764V15.6961C21.8764 17.5553 22.8603 18.5028 24.5358 18.5028H26.3428V22.294H24.0253C20.0184 22.294 17.3945 19.9611 17.3945 15.8787V0.599121H21.8764Z" fill="white"/>
<path d="M26.7119 13.1092C26.7119 7.64138 30.7188 3.63184 36.33 3.63184C41.9041 3.63184 45.911 7.64138 45.911 13.1092C45.911 18.5771 41.9041 22.5882 36.33 22.5882C30.7188 22.5866 26.7119 18.5771 26.7119 13.1092ZM41.3936 13.1092C41.3936 9.79168 39.353 7.49586 36.33 7.49586C33.2699 7.49586 31.2293 9.79322 31.2293 13.1092C31.2293 16.4268 33.2699 18.7226 36.33 18.7226C39.353 18.7226 41.3936 16.4268 41.3936 13.1092Z" fill="white"/>
<path d="M55.5857 3.63025C60.7885 3.63025 63.5748 6.61961 63.5748 10.9217V22.2955H59.0945V11.8692C59.0945 9.35353 57.8816 7.60419 55.5857 7.60419C53.2899 7.60419 52.077 9.35353 52.077 11.8692V22.2955H47.5967V10.9217C47.5967 6.61961 50.3829 3.63025 55.5857 3.63025Z" fill="white"/>
<path d="M83.1396 16.1713C82.448 20.0725 79.0228 22.5866 74.5054 22.5866C68.4951 22.5866 65.1426 17.8479 65.1426 13.0349C65.1426 8.18627 68.13 3.63025 74.1403 3.63025C80.2976 3.63025 83.0653 8.11351 83.0653 12.4884C83.0653 13.1076 83.0282 13.6557 82.9926 14.0195H69.4403C69.7683 16.9717 71.6619 18.8681 74.5039 18.8681C76.7997 18.8681 78.2926 17.9206 78.766 16.1713H83.1396ZM69.5502 11.0673H78.585C78.4025 8.73429 76.7997 6.98495 74.1403 6.98495C71.6279 6.98495 70.0236 8.29618 69.5502 11.0673Z" fill="white"/>
<path d="M110.66 9.51917C108.754 9.51917 107.458 10.9682 107.458 13.1061C107.458 15.2177 108.754 16.6667 110.66 16.6667C112.566 16.6667 113.863 15.2161 113.863 13.1061C113.863 10.9682 112.566 9.51917 110.66 9.51917Z" fill="white"/>
<path d="M110.815 2.81445H96.639C90.9582 2.81445 86.3525 7.42311 86.3525 13.1077C86.3525 18.7923 90.9582 23.4009 96.639 23.4009H110.815C116.496 23.4009 121.101 18.7923 121.101 13.1077C121.101 7.42311 116.496 2.81445 110.815 2.81445ZM96.6436 19.718C92.6785 19.718 90.0346 16.8432 90.0346 13.1046C90.0346 9.36596 92.6785 6.49116 96.6436 6.49116C99.9992 6.49116 102.668 8.52535 102.897 11.5023H99.3386C99.1359 10.3583 98.0422 9.51767 96.7457 9.51767C94.8397 9.51767 93.7212 11.0178 93.7212 13.1046C93.7212 15.1899 94.8645 16.6652 96.7968 16.6652C98.0932 16.6652 99.1359 15.8772 99.3897 14.7316H102.999C102.617 17.5817 99.9729 19.718 96.6436 19.718ZM110.66 19.718C106.72 19.718 103.899 16.9206 103.899 13.1046C103.899 9.28856 106.721 6.49116 110.66 6.49116C114.6 6.49116 117.421 9.28856 117.421 13.1046C117.421 16.9206 114.599 19.718 110.66 19.718Z" fill="white"/>
</g>
<defs>
<clipPath id="clip0_26171_32334">
<rect width="122" height="24" fill="white"/>
</clipPath>
</defs>
</svg>
