<svg width="16" height="16" viewBox="0 0 16 16" fill="none" xmlns="http://www.w3.org/2000/svg">
<rect width="16" height="16" fill="#00CC2C"/>
<path d="M13.2291 9.79409C13.6547 9.79409 13.9996 9.45 13.9996 9.02541V6.9328C13.9996 5.26103 12.8151 4 11.2444 4C9.67374 4 8.48926 5.26066 8.48926 6.9328V9.02541C8.48926 9.45 8.83417 9.79409 9.25977 9.79409C9.68538 9.79409 10.0303 9.45 10.0303 9.02541V6.9328C10.0303 6.0342 10.4957 5.47595 11.2444 5.47595C11.9932 5.47595 12.4586 6.0342 12.4586 6.9328V9.02541C12.4586 9.45 12.8035 9.79409 13.2291 9.79409Z" fill="white"/>
<path d="M4.93982 4C3.31885 4 2 5.3157 2 6.9328C2 8.5499 3.31885 9.8656 4.93982 9.8656C6.56079 9.8656 7.87963 8.5499 7.87963 6.9328C7.87963 5.3157 6.56079 4 4.93982 4ZM4.93982 8.38965C4.13477 8.38965 3.47948 7.7363 3.47948 6.9328C3.47948 6.12968 4.1344 5.47595 4.93982 5.47595C5.74486 5.47595 6.40015 6.1293 6.40015 6.9328C6.40015 7.73592 5.74523 8.38965 4.93982 8.38965Z" fill="white"/>
<path d="M4.5943 10.8707C4.85815 10.5925 5.31603 10.5644 5.60764 10.8134C6.32937 11.4304 7.03796 11.7637 8.09558 11.7637C9.15321 11.7637 9.8618 11.4301 10.5835 10.8134C10.8751 10.5644 11.333 10.5925 11.5969 10.8707C11.8907 11.1807 11.8663 11.663 11.5398 11.9385C10.5426 12.7791 9.49362 13.2348 8.09596 13.2348C6.6983 13.2348 5.6493 12.7791 4.6521 11.9385C4.3252 11.663 4.30081 11.1811 4.59505 10.8707H4.5943Z" fill="white"/>
</svg>
